<svg xmlns="http://www.w3.org/2000/svg" version="1.1" viewBox="0.00 0.00 774.00 774.00">
<g stroke-width="2.00" fill="none" stroke-linecap="butt">
<path stroke="#b3cc9a" vector-effect="non-scaling-stroke" d="
  M 559.92 442.98
  Q 560.56 443.18 561.20 443.31
  Q 561.74 443.42 561.74 442.87
  Q 561.80 433.54 561.79 424.03
  C 561.79 420.94 559.37 419.16 559.35 415.95
  Q 559.30 408.65 558.76 401.10
  Q 554.34 339.10 514.54 294.38
  C 483.98 260.03 440.74 237.87 396.77 226.28
  A 3.82 3.82 0.0 0 0 394.81 226.28
  C 360.54 235.42 327.14 250.73 300.00 272.69
  Q 237.86 322.98 232.76 403.75
  Q 232.42 409.18 232.41 415.81
  C 232.41 419.81 229.78 422.90 229.83 427.02
  Q 229.92 434.92 229.84 443.13
  Q 229.83 443.79 230.47 443.61
  Q 328.00 416.15 427.72 420.22
  Q 496.95 423.05 559.92 442.98"
/>
<path stroke="#b3cc9a" vector-effect="non-scaling-stroke" d="
  M 227.39 406.49
  C 228.39 380.07 234.64 353.59 246.68 330.35
  A 0.34 0.33 24.8 0 0 246.50 329.88
  Q 241.70 328.11 236.01 326.57
  Q 234.20 326.08 232.35 326.61
  Q 208.43 333.48 191.46 346.01
  Q 155.37 372.64 154.81 417.93
  C 154.78 419.92 153.56 421.19 153.56 423.31
  Q 153.54 430.41 153.51 437.95
  A 0.46 0.45 -7.3 0 0 154.09 438.39
  Q 188.23 428.68 224.03 425.77
  Q 224.67 425.72 224.68 425.09
  L 224.72 422.39
  Q 224.73 421.88 224.94 421.42
  C 225.83 419.39 227.07 417.63 227.12 415.32
  Q 227.22 411.05 227.39 406.49"
/>
<path stroke="#b3cc9a" vector-effect="non-scaling-stroke" d="
  M 604.92 349.62
  C 591.84 338.79 576.07 331.39 559.48 326.62
  Q 557.55 326.07 555.68 326.59
  Q 550.23 328.09 545.42 329.78
  A 0.46 0.45 66.8 0 0 545.17 330.42
  C 558.57 357.05 564.57 386.09 564.62 415.90
  Q 564.62 417.61 566.14 419.93
  C 567.13 421.45 567.24 423.23 566.96 424.96
  Q 566.84 425.71 567.60 425.77
  Q 602.24 428.49 637.49 438.34
  A 0.55 0.54 7.3 0 0 638.18 437.81
  Q 638.07 430.52 638.23 422.98
  C 638.27 420.99 636.92 419.92 636.91 417.98
  Q 636.48 375.76 604.92 349.62"
/>
<path stroke="#b3cc9a" vector-effect="non-scaling-stroke" d="
  M 570.49 451.83
  C 507.10 430.26 439.74 422.49 372.77 425.89
  C 321.40 428.50 270.64 436.79 222.09 451.73
  Q 221.54 451.90 221.54 452.47
  L 221.54 478.00
  A 0.47 0.47 0.0 0 0 222.01 478.47
  L 570.16 478.47
  Q 570.79 478.47 570.79 477.84
  L 570.80 452.27
  A 0.47 0.47 0.0 0 0 570.49 451.83"
/>
<path stroke="#b3cc9a" vector-effect="non-scaling-stroke" d="
  M 217.01 447.34
  L 223.99 445.20
  Q 224.59 445.01 224.60 444.38
  L 224.72 432.71
  Q 224.73 431.97 223.99 432.01
  Q 190.55 433.52 157.81 442.53
  Q 154.08 443.55 150.40 444.90
  Q 149.31 445.30 149.31 446.47
  L 149.28 459.19
  Q 149.27 459.86 149.94 459.86
  L 215.72 459.86
  Q 216.30 459.86 216.30 459.28
  L 216.30 448.31
  Q 216.30 447.56 217.01 447.34"
/>
<path stroke="#b3cc9a" vector-effect="non-scaling-stroke" d="
  M 575.47 448.21
  L 575.46 459.29
  Q 575.46 459.86 576.04 459.86
  L 641.71 459.86
  Q 642.29 459.86 642.29 459.28
  L 642.29 446.22
  A 1.55 1.55 0.0 0 0 641.20 444.74
  Q 605.37 433.63 567.90 432.05
  Q 567.21 432.02 567.20 432.72
  L 567.10 444.49
  Q 567.10 444.97 567.56 445.12
  L 574.84 447.35
  A 0.90 0.89 -81.8 0 1 575.47 448.21"
/>
<path stroke="#b3cc9a" vector-effect="non-scaling-stroke" d="
  M 174.02 506.75
  C 176.02 505.41 179.70 505.61 180.20 508.59
  Q 180.31 509.26 180.99 509.26
  L 184.29 509.24
  Q 185.00 509.24 184.85 508.55
  Q 183.84 503.58 178.90 502.69
  C 174.67 501.93 168.86 503.19 168.62 508.52
  C 168.39 513.66 175.49 515.37 179.12 516.73
  A 2.06 2.05 15.3 0 1 180.42 519.00
  Q 180.02 521.41 177.43 521.59
  Q 172.80 521.92 172.44 518.26
  Q 172.40 517.84 171.97 517.84
  L 168.34 517.84
  A 0.50 0.49 -4.5 0 0 167.85 518.41
  C 168.76 524.35 174.97 526.12 180.10 524.79
  C 184.73 523.60 186.61 518.31 183.03 514.71
  C 181.03 512.71 177.93 512.08 175.37 511.11
  Q 173.01 510.21 173.20 508.13
  A 1.86 1.84 76.0 0 1 174.02 506.75"
/>
<path stroke="#b3cc9a" vector-effect="non-scaling-stroke" d="
  M 368.18 507.83
  C 370.26 504.90 375.72 505.50 375.95 509.71
  Q 375.98 510.23 376.50 510.22
  L 380.01 510.21
  Q 380.43 510.21 380.45 509.79
  Q 380.49 508.97 380.21 508.24
  Q 377.80 501.82 370.62 502.57
  C 362.81 503.38 361.59 511.37 362.84 517.82
  Q 364.06 524.09 370.20 525.06
  C 374.76 525.79 380.21 523.14 380.44 518.00
  Q 380.46 517.50 379.96 517.50
  L 376.52 517.50
  Q 376.02 517.50 375.95 518.00
  C 375.33 522.93 367.86 522.77 367.34 517.55
  C 367.09 514.97 366.60 510.04 368.18 507.83"
/>
<path stroke="#b3cc9a" vector-effect="non-scaling-stroke" d="
  M 475.2404 525.3699
  A 11.56 9.64 89.8 0 0 484.8399 513.7764
  A 11.56 9.64 89.8 0 0 475.1596 502.2501
  A 11.56 9.64 89.8 0 0 465.5601 513.8436
  A 11.56 9.64 89.8 0 0 475.2404 525.3699"
/>
<path stroke="#b3cc9a" vector-effect="non-scaling-stroke" d="
  M 606.2001 525.3600
  A 11.54 9.65 89.9 0 0 615.8300 513.8032
  A 11.54 9.65 89.9 0 0 606.1599 502.2800
  A 11.54 9.65 89.9 0 0 596.5300 513.8368
  A 11.54 9.65 89.9 0 0 606.2001 525.3600"
/>
<path stroke="#b3cc9a" vector-effect="non-scaling-stroke" d="
  M 164.64 503.20
  A 0.44 0.44 0.0 0 0 164.20 502.76
  L 160.48 502.76
  A 0.44 0.44 0.0 0 0 160.04 503.20
  L 160.04 524.50
  A 0.44 0.44 0.0 0 0 160.48 524.94
  L 164.20 524.94
  A 0.44 0.44 0.0 0 0 164.64 524.50
  L 164.64 503.20"
/>
<path stroke="#b3cc9a" vector-effect="non-scaling-stroke" d="
  M 192.94 521.25
  A 0.45 0.45 0.0 0 1 192.49 520.80
  L 192.51 503.20
  A 0.45 0.45 0.0 0 0 192.05 502.75
  L 188.35 502.79
  A 0.45 0.45 0.0 0 0 187.91 503.24
  L 187.94 524.45
  A 0.45 0.45 0.0 0 0 188.39 524.90
  L 201.56 524.87
  A 0.45 0.45 0.0 0 0 202.01 524.44
  L 202.15 521.73
  A 0.45 0.45 0.0 0 0 201.70 521.26
  L 192.94 521.25"
/>
<path stroke="#b3cc9a" vector-effect="non-scaling-stroke" d="
  M 217.12 520.21
  A 0.52 0.52 0.0 0 1 217.62 520.57
  L 218.88 524.51
  A 0.52 0.52 0.0 0 0 219.36 524.87
  L 223.12 524.97
  A 0.52 0.52 0.0 0 0 223.62 524.27
  L 215.78 503.10
  A 0.52 0.52 0.0 0 0 215.29 502.76
  L 211.72 502.78
  A 0.52 0.52 0.0 0 0 211.23 503.12
  L 203.41 524.25
  A 0.52 0.52 0.0 0 0 203.90 524.95
  L 207.69 524.94
  A 0.52 0.52 0.0 0 0 208.19 524.57
  L 209.36 520.59
  A 0.52 0.52 0.0 0 1 209.86 520.22
  L 217.12 520.21"
/>
<path stroke="#b3cc9a" vector-effect="non-scaling-stroke" d="
  M 244.80 509.81
  L 244.45 524.20
  A 0.75 0.74 0.7 0 0 245.20 524.96
  L 248.09 524.94
  Q 249.11 524.93 249.11 523.91
  L 249.06 503.42
  Q 249.06 502.77 248.42 502.77
  L 243.69 502.78
  Q 243.15 502.78 242.97 503.29
  L 237.94 517.81
  Q 237.51 519.06 237.08 517.81
  L 232.06 503.29
  A 0.79 0.78 79.6 0 0 231.31 502.77
  L 226.27 502.81
  A 0.38 0.38 0.0 0 0 225.89 503.19
  L 225.93 524.17
  Q 225.93 524.91 226.67 524.92
  L 229.82 524.94
  A 0.74 0.74 0.0 0 0 230.57 524.18
  L 230.21 509.67
  Q 230.18 508.71 230.51 509.61
  L 235.70 524.14
  Q 235.97 524.90 236.78 524.92
  L 238.34 524.97
  Q 238.98 524.99 239.20 524.39
  L 244.50 509.76
  Q 244.83 508.86 244.80 509.81"
/>
<path stroke="#b3cc9a" vector-effect="non-scaling-stroke" d="
  M 257.67 520.69
  A 0.64 0.64 0.0 0 1 258.28 520.23
  L 265.38 520.19
  A 0.64 0.64 0.0 0 1 265.99 520.64
  L 267.16 524.40
  A 0.64 0.64 0.0 0 0 267.74 524.85
  L 271.31 525.02
  A 0.64 0.64 0.0 0 0 271.94 524.16
  L 264.15 503.19
  A 0.64 0.64 0.0 0 0 263.55 502.77
  L 260.15 502.77
  A 0.64 0.64 0.0 0 0 259.55 503.19
  L 251.82 524.09
  A 0.64 0.64 0.0 0 0 252.42 524.95
  L 255.95 524.93
  A 0.64 0.64 0.0 0 0 256.56 524.47
  L 257.67 520.69"
/>
<path stroke="#b3cc9a" vector-effect="non-scaling-stroke" d="
  M 278.87 516.11
  A 0.37 0.37 0.0 0 1 279.24 515.74
  L 287.25 515.77
  A 0.37 0.37 0.0 0 0 287.62 515.41
  L 287.68 512.53
  A 0.37 0.37 0.0 0 0 287.31 512.15
  L 279.22 512.20
  A 0.37 0.37 0.0 0 1 278.85 511.83
  L 278.83 506.68
  A 0.37 0.37 0.0 0 1 279.20 506.31
  L 288.28 506.29
  A 0.37 0.37 0.0 0 0 288.65 505.91
  L 288.61 503.13
  A 0.37 0.37 0.0 0 0 288.24 502.77
  L 274.66 502.77
  A 0.37 0.37 0.0 0 0 274.29 503.14
  L 274.29 524.56
  A 0.37 0.37 0.0 0 0 274.66 524.93
  L 278.52 524.92
  A 0.37 0.37 0.0 0 0 278.89 524.55
  L 278.87 516.11"
/>
<path stroke="#b3cc9a" vector-effect="non-scaling-stroke" d="
  M 295.87 516.18
  A 0.45 0.45 0.0 0 1 296.32 515.73
  L 304.24 515.77
  A 0.45 0.45 0.0 0 0 304.69 515.33
  L 304.75 512.65
  A 0.45 0.45 0.0 0 0 304.30 512.19
  L 296.30 512.21
  A 0.45 0.45 0.0 0 1 295.85 511.76
  L 295.83 506.74
  A 0.45 0.45 0.0 0 1 296.28 506.29
  L 305.25 506.30
  A 0.45 0.45 0.0 0 0 305.70 505.85
  L 305.68 503.22
  A 0.45 0.45 0.0 0 0 305.23 502.77
  L 291.73 502.77
  A 0.45 0.45 0.0 0 0 291.28 503.22
  L 291.29 524.48
  A 0.45 0.45 0.0 0 0 291.74 524.93
  L 295.44 524.93
  A 0.45 0.45 0.0 0 0 295.89 524.48
  L 295.87 516.18"
/>
<path stroke="#b3cc9a" vector-effect="non-scaling-stroke" d="
  M 309.91 520.65
  A 0.62 0.62 0.0 0 1 310.50 520.22
  L 317.61 520.22
  A 0.62 0.62 0.0 0 1 318.21 520.67
  L 319.30 524.45
  A 0.62 0.62 0.0 0 0 319.88 524.89
  L 323.52 525.01
  A 0.62 0.62 0.0 0 0 324.12 524.17
  L 316.29 503.17
  A 0.62 0.62 0.0 0 0 315.71 502.77
  L 312.28 502.77
  A 0.62 0.62 0.0 0 0 311.70 503.18
  L 303.95 524.13
  A 0.62 0.62 0.0 0 0 304.54 524.97
  L 308.12 524.93
  A 0.62 0.62 0.0 0 0 308.70 524.49
  L 309.91 520.65"
/>
<path stroke="#b3cc9a" vector-effect="non-scaling-stroke" d="
  M 331.29 503.17
  A 0.40 0.40 0.0 0 0 330.89 502.77
  L 327.15 502.77
  A 0.40 0.40 0.0 0 0 326.75 503.17
  L 326.75 524.51
  A 0.40 0.40 0.0 0 0 327.15 524.91
  L 330.89 524.91
  A 0.40 0.40 0.0 0 0 331.29 524.51
  L 331.29 503.17"
/>
<path stroke="#b3cc9a" vector-effect="non-scaling-stroke" d="
  M 340.73 516.68
  L 343.17 516.69
  Q 343.77 516.69 344.03 517.24
  Q 345.82 521.09 347.80 524.66
  Q 347.83 524.71 347.88 524.72
  Q 349.07 525.09 352.60 524.88
  A 0.15 0.15 0.0 0 0 352.72 524.66
  L 348.23 516.05
  Q 348.01 515.64 348.41 515.40
  C 353.98 512.03 352.83 503.40 345.77 502.94
  Q 341.08 502.63 336.18 502.79
  Q 335.54 502.81 335.54 503.46
  L 335.53 524.23
  Q 335.53 524.92 336.23 524.93
  L 339.47 524.96
  A 0.68 0.68 0.0 0 0 340.15 524.28
  L 340.14 517.27
  Q 340.14 516.68 340.73 516.68"
/>
<path stroke="#b3cc9a" vector-effect="non-scaling-stroke" d="
  M 395.59 520.24
  A 0.52 0.52 0.0 0 1 396.08 520.60
  L 397.33 524.51
  A 0.52 0.52 0.0 0 0 397.81 524.87
  L 401.57 524.99
  A 0.52 0.52 0.0 0 0 402.08 524.29
  L 394.16 503.13
  A 0.52 0.52 0.0 0 0 393.68 502.80
  L 390.17 502.75
  A 0.52 0.52 0.0 0 0 389.67 503.09
  L 381.79 524.26
  A 0.52 0.52 0.0 0 0 382.28 524.97
  L 386.02 524.90
  A 0.52 0.52 0.0 0 0 386.50 524.54
  L 387.86 520.55
  A 0.52 0.52 0.0 0 1 388.35 520.20
  L 395.59 520.24"
/>
<path stroke="#b3cc9a" vector-effect="non-scaling-stroke" d="
  M 417.34 515.26
  Q 420.70 513.48 420.66 509.61
  Q 420.60 503.51 414.55 502.97
  Q 410.17 502.57 404.89 502.82
  Q 404.29 502.84 404.29 503.44
  L 404.28 524.23
  Q 404.28 524.94 404.98 524.93
  L 408.23 524.92
  Q 408.87 524.92 408.87 524.27
  L 408.89 517.37
  Q 408.89 516.77 409.48 516.73
  Q 410.53 516.64 411.63 516.66
  Q 412.44 516.67 412.83 517.38
  Q 414.82 521.01 416.49 524.60
  A 0.56 0.56 0.0 0 0 417.00 524.93
  L 421.35 524.92
  A 0.18 0.18 0.0 0 0 421.51 524.66
  L 417.07 516.13
  Q 416.77 515.56 417.34 515.26"
/>
<path stroke="#b3cc9a" vector-effect="non-scaling-stroke" d="
  M 428.99 515.26
  L 437.09 515.27
  Q 437.44 515.27 437.45 514.91
  L 437.48 512.22
  A 0.43 0.43 0.0 0 0 437.05 511.78
  Q 432.96 511.79 429.01 511.78
  A 0.29 0.29 0.0 0 1 428.73 511.49
  Q 428.73 511.48 428.72 506.57
  Q 428.72 506.28 429.00 506.28
  L 438.73 506.30
  Q 439.01 506.30 439.00 506.02
  L 438.98 503.12
  A 0.36 0.36 0.0 0 0 438.62 502.77
  L 424.84 502.77
  A 0.64 0.63 89.5 0 0 424.22 503.41
  L 424.21 524.30
  Q 424.21 524.88 424.80 524.88
  L 438.56 524.87
  Q 438.99 524.87 438.99 524.44
  L 439.00 521.75
  Q 439.00 521.24 438.50 521.24
  L 428.99 521.25
  Q 428.73 521.25 428.73 520.99
  L 428.73 515.51
  Q 428.73 515.26 428.99 515.26"
/>
<path stroke="#b3cc9a" vector-effect="non-scaling-stroke" d="
  M 453.99 516.11
  A 0.37 0.37 0.0 0 1 454.36 515.74
  L 462.41 515.77
  A 0.37 0.37 0.0 0 0 462.78 515.41
  L 462.84 512.56
  A 0.37 0.37 0.0 0 0 462.47 512.18
  L 454.37 512.21
  A 0.37 0.37 0.0 0 1 454.00 511.84
  L 453.96 506.68
  A 0.37 0.37 0.0 0 1 454.33 506.31
  L 463.53 506.29
  A 0.37 0.37 0.0 0 0 463.90 505.91
  L 463.86 503.13
  A 0.37 0.37 0.0 0 0 463.49 502.77
  L 449.83 502.77
  A 0.37 0.37 0.0 0 0 449.46 503.14
  L 449.47 524.56
  A 0.37 0.37 0.0 0 0 449.84 524.93
  L 453.62 524.92
  A 0.37 0.37 0.0 0 0 453.99 524.55
  L 453.99 516.11"
/>
<path stroke="#b3cc9a" vector-effect="non-scaling-stroke" d="
  M 499.95 517.73
  C 499.97 523.05 492.25 522.91 492.23 517.54
  Q 492.20 510.22 492.21 503.21
  A 0.44 0.44 0.0 0 0 491.77 502.77
  L 488.22 502.77
  Q 487.70 502.77 487.70 503.29
  Q 487.73 509.54 487.66 517.18
  C 487.57 528.05 504.38 527.55 504.50 518.15
  Q 504.59 511.27 504.54 503.25
  Q 504.54 502.76 504.06 502.77
  L 500.47 502.79
  A 0.51 0.50 0.0 0 0 499.96 503.29
  Q 499.93 510.52 499.95 517.73"
/>
<path stroke="#b3cc9a" vector-effect="non-scaling-stroke" d="
  M 521.77 516.42
  A 0.31 0.31 0.0 0 1 521.19 516.58
  L 513.00 502.94
  A 0.31 0.31 0.0 0 0 512.74 502.79
  L 508.59 502.76
  A 0.31 0.31 0.0 0 0 508.28 503.07
  L 508.27 524.65
  A 0.31 0.31 0.0 0 0 508.58 524.96
  L 512.51 524.96
  A 0.31 0.31 0.0 0 0 512.82 524.65
  L 512.78 510.90
  A 0.31 0.31 0.0 0 1 513.36 510.75
  L 521.70 524.79
  A 0.31 0.31 0.0 0 0 521.97 524.94
  L 525.94 524.94
  A 0.31 0.31 0.0 0 0 526.25 524.63
  L 526.25 503.07
  A 0.31 0.31 0.0 0 0 525.94 502.76
  L 522.03 502.79
  A 0.31 0.31 0.0 0 0 521.72 503.10
  L 521.77 516.42"
/>
<path stroke="#b3cc9a" vector-effect="non-scaling-stroke" d="
  M 530.25 503.27
  L 530.17 524.33
  A 0.56 0.56 0.0 0 0 530.73 524.89
  L 537.16 524.91
  A 10.13 10.01 -89.8 0 0 547.21 514.82
  L 547.21 512.90
  A 10.13 10.01 -89.8 0 0 537.24 502.73
  L 530.81 502.71
  A 0.56 0.56 0.0 0 0 530.25 503.27"
/>
<path stroke="#b3cc9a" vector-effect="non-scaling-stroke" d="
  M 555.19 520.22
  L 562.01 520.23
  Q 562.58 520.23 562.76 520.76
  L 564.00 524.47
  Q 564.22 525.12 564.89 524.97
  Q 566.46 524.61 568.07 525.05
  A 0.58 0.58 0.0 0 0 568.77 524.29
  L 560.86 503.24
  Q 560.68 502.75 560.16 502.76
  L 556.83 502.79
  A 0.54 0.53 -79.7 0 0 556.33 503.14
  L 548.47 524.20
  A 0.53 0.53 0.0 0 0 548.97 524.92
  L 552.43 524.90
  Q 553.05 524.90 553.24 524.31
  L 554.38 520.80
  Q 554.57 520.22 555.19 520.22"
/>
<path stroke="#b3cc9a" vector-effect="non-scaling-stroke" d="
  M 579.59 506.28
  L 585.50 506.30
  A 0.29 0.28 90.0 0 0 585.79 506.00
  L 585.78 503.02
  Q 585.78 502.77 585.52 502.77
  L 568.24 502.77
  Q 567.75 502.77 567.75 503.26
  L 567.74 505.77
  Q 567.74 506.29 568.27 506.29
  L 573.83 506.29
  Q 574.37 506.29 574.37 506.83
  L 574.38 524.47
  A 0.55 0.55 0.0 0 0 575.06 525.00
  Q 576.51 524.63 578.23 525.04
  A 0.59 0.59 0.0 0 0 578.95 524.47
  L 578.95 506.91
  Q 578.95 506.28 579.59 506.28"
/>
<path stroke="#b3cc9a" vector-effect="non-scaling-stroke" d="
  M 593.21 503.10
  A 0.32 0.32 0.0 0 0 592.89 502.78
  L 588.95 502.78
  A 0.32 0.32 0.0 0 0 588.63 503.10
  L 588.63 524.58
  A 0.32 0.32 0.0 0 0 588.95 524.90
  L 592.89 524.90
  A 0.32 0.32 0.0 0 0 593.21 524.58
  L 593.21 503.10"
/>
<path stroke="#b3cc9a" vector-effect="non-scaling-stroke" d="
  M 623.08 524.93
  A 0.30 0.30 0.0 0 0 623.39 524.62
  L 623.33 510.92
  A 0.30 0.30 0.0 0 1 623.89 510.77
  L 632.18 524.74
  A 0.30 0.30 0.0 0 0 632.44 524.88
  L 636.49 524.95
  A 0.30 0.30 0.0 0 0 636.79 524.65
  L 636.79 503.05
  A 0.30 0.30 0.0 0 0 636.49 502.75
  L 632.54 502.79
  A 0.30 0.30 0.0 0 0 632.24 503.09
  L 632.27 516.48
  A 0.30 0.30 0.0 0 1 631.71 516.63
  L 623.53 502.95
  A 0.30 0.30 0.0 0 0 623.27 502.81
  L 619.09 502.78
  A 0.30 0.30 0.0 0 0 618.79 503.08
  L 618.79 524.56
  A 0.30 0.30 0.0 0 0 619.09 524.86
  L 623.08 524.93"
/>
<path stroke="#b3cc9a" vector-effect="non-scaling-stroke" d="
  M 397.78 337.69
  A 1.93 1.92 46.6 0 1 397.71 340.17
  C 395.61 342.51 393.39 343.76 390.87 345.46
  C 379.71 352.97 364.35 359.78 350.29 358.21
  C 337.63 356.80 338.69 341.67 342.23 333.12
  C 345.07 326.29 348.08 319.59 348.46 312.19
  Q 348.49 311.59 347.96 311.29
  L 345.23 309.77
  Q 344.56 309.40 344.52 310.17
  C 344.05 319.32 339.42 327.44 334.89 335.47
  C 329.43 345.15 323.74 358.60 336.24 365.93
  C 346.48 371.94 357.88 370.89 369.23 367.32
  Q 382.18 363.24 392.39 355.76
  C 398.08 351.59 402.30 346.20 403.51 339.27
  C 405.47 327.97 399.32 323.68 389.70 322.53
  C 384.77 321.94 379.80 321.30 375.10 319.83
  Q 371.79 318.79 371.01 315.74
  C 370.29 312.92 373.29 310.63 374.67 308.85
  Q 380.64 301.17 389.71 297.52
  C 397.36 294.45 398.86 302.43 400.28 307.46
  A 0.63 0.63 0.0 0 0 401.40 307.66
  Q 408.55 297.76 402.14 288.14
  C 399.18 283.71 393.76 284.89 389.83 286.85
  Q 380.56 291.47 372.98 300.46
  Q 366.14 308.58 365.01 322.09
  C 364.84 324.11 364.73 326.19 366.01 327.78
  Q 368.27 330.58 372.41 331.43
  Q 378.66 332.73 385.40 333.55
  C 388.32 333.90 395.84 335.28 397.78 337.69"
/>
<path stroke="#b3cc9a" vector-effect="non-scaling-stroke" d="
  M 425.71 330.29
  Q 415.69 336.75 411.42 348.04
  C 406.35 361.43 407.94 377.56 417.16 388.43
  Q 425.73 398.54 440.25 405.88
  Q 440.82 406.16 441.27 405.73
  L 449.89 397.63
  A 0.41 0.40 32.8 0 0 449.74 396.95
  C 437.01 392.66 423.78 383.53 417.82 371.22
  Q 411.40 357.96 420.54 346.68
  C 429.90 335.13 444.40 330.27 458.75 328.64
  Q 461.00 328.39 462.61 327.11
  A 1.27 1.24 77.9 0 0 463.05 326.41
  L 465.35 317.03
  Q 465.47 316.50 464.94 316.58
  Q 452.84 318.36 440.12 322.55
  C 438.08 323.22 436.08 323.18 434.22 322.06
  C 429.40 319.16 423.41 314.42 420.62 309.45
  C 418.80 306.20 419.67 302.38 423.19 300.78
  C 432.33 296.61 441.80 298.54 450.40 303.52
  Q 450.86 303.78 451.22 303.40
  L 451.89 302.69
  Q 452.29 302.27 451.97 301.78
  C 445.82 292.32 435.09 284.12 424.03 290.19
  C 417.59 293.73 414.04 301.15 413.23 308.40
  Q 412.48 315.13 417.56 321.06
  Q 421.38 325.50 425.77 329.43
  Q 426.31 329.91 425.71 330.29"
/>
<path stroke="#b3cc9a" vector-effect="non-scaling-stroke" d="
  M 342.30 300.37
  A 2.55 2.55 0.0 0 0 343.28 304.20
  L 346.88 305.87
  A 2.55 2.55 0.0 0 0 349.98 305.10
  L 353.19 300.89
  A 2.55 2.55 0.0 0 0 352.27 297.04
  L 348.62 295.29
  A 2.55 2.55 0.0 0 0 345.47 296.08
  L 342.30 300.37"
/>
<path stroke="#b3cc9a" vector-effect="non-scaling-stroke" d="
  M 407.22 377.05
  Q 387.54 376.49 367.91 378.41
  A 0.41 0.41 0.0 0 0 367.55 378.90
  L 367.61 379.23
  Q 367.74 379.89 368.42 379.83
  Q 387.96 377.91 407.44 378.60
  A 0.47 0.46 -86.1 0 0 407.92 378.17
  L 407.95 377.87
  A 0.76 0.75 -87.1 0 0 407.22 377.05"
/>
<path stroke="#b3cc9a" vector-effect="non-scaling-stroke" d="
  M 389.43 382.99
  Q 389.74 382.99 390.02 382.86
  Q 390.60 382.58 390.23 382.05
  Q 389.89 381.58 389.38 381.23
  A 0.49 0.48 -58.3 0 0 388.69 381.40
  Q 388.18 382.29 388.69 383.27
  A 0.25 0.24 -17.8 0 0 388.95 383.40
  Q 389.20 383.36 389.25 383.14
  A 0.19 0.18 -84.2 0 1 389.43 382.99"
/>
<path stroke="#b3cc9a" vector-effect="non-scaling-stroke" d="
  M 396.16 383.31
  Q 395.88 383.15 395.57 383.46
  Q 395.09 383.94 395.73 384.18
  Q 396.77 384.59 397.56 384.18
  Q 399.04 383.43 397.38 383.23
  Q 397.06 383.20 396.76 383.33
  Q 396.46 383.47 396.16 383.31"
/>
<path stroke="#b3cc9a" vector-effect="non-scaling-stroke" d="
  M 388.99 383.80
  L 389.21 390.62
  A 0.10 0.10 0.0 0 0 389.32 390.71
  L 389.50 390.71
  A 3.01 0.82 88.1 0 0 390.22 387.67
  L 390.18 386.67
  A 3.01 0.82 88.1 0 0 389.26 383.69
  L 389.08 383.70
  A 0.10 0.10 0.0 0 0 388.99 383.80"
/>
<path stroke="#b3cc9a" vector-effect="non-scaling-stroke" d="
  M 403.44 389.17
  Q 402.05 389.74 401.22 388.48
  A 0.34 0.34 0.0 0 0 400.66 388.45
  Q 399.96 389.31 398.88 389.29
  A 1.00 1.00 0.0 0 1 397.90 388.34
  L 397.78 385.77
  Q 397.76 385.18 397.31 385.56
  L 394.83 387.72
  A 1.44 1.44 0.0 0 0 395.86 390.24
  L 396.98 390.16
  A 1.80 1.77 59.1 0 1 398.02 390.43
  Q 399.00 391.05 400.04 390.46
  Q 400.51 390.19 401.00 390.43
  Q 402.26 391.05 403.56 390.56
  Q 404.27 390.29 404.93 390.66
  C 406.49 391.53 408.19 389.98 410.27 391.01
  A 1.35 1.35 0.0 0 0 412.22 389.87
  C 412.31 387.93 410.42 387.08 409.09 386.02
  Q 408.58 385.62 408.21 386.16
  Q 407.34 387.41 407.04 388.76
  A 0.99 0.99 0.0 0 1 405.61 389.41
  Q 404.92 389.05 404.73 388.26
  Q 404.65 387.91 404.37 388.12
  Q 404.23 388.22 404.18 388.37
  Q 403.99 388.94 403.44 389.17"
/>
<path stroke="#b3cc9a" vector-effect="non-scaling-stroke" d="
  M 401.7232 386.6102
  A 1.16 0.84 22.3 0 0 400.9687 385.3928
  A 1.16 0.84 22.3 0 0 399.5768 385.7298
  A 1.16 0.84 22.3 0 0 400.3313 386.9472
  A 1.16 0.84 22.3 0 0 401.7232 386.6102"
/>
<path stroke="#b3cc9a" vector-effect="non-scaling-stroke" d="
  M 363.6714 392.7696
  A 3.68 0.59 89.2 0 0 364.2099 389.0818
  A 3.68 0.59 89.2 0 0 363.5686 385.4104
  A 3.68 0.59 89.2 0 0 363.0301 389.0982
  A 3.68 0.59 89.2 0 0 363.6714 392.7696"
/>
<path stroke="#b3cc9a" vector-effect="non-scaling-stroke" d="
  M 360.27 391.99
  Q 359.07 392.89 357.82 393.03
  Q 357.24 393.10 357.51 393.63
  Q 358.04 394.67 357.11 395.38
  A 0.65 0.65 0.0 0 0 357.37 396.53
  Q 357.98 396.66 358.42 396.29
  Q 358.64 396.10 358.59 395.82
  L 358.35 394.50
  Q 358.24 393.87 358.88 393.85
  C 362.45 393.75 361.25 389.90 361.93 387.58
  Q 362.03 387.23 361.89 386.89
  Q 361.77 386.59 361.51 386.40
  A 0.63 0.62 -74.3 0 0 360.52 386.96
  L 360.82 390.77
  A 1.39 1.39 0.0 0 1 360.27 391.99"
/>
<path stroke="#b3cc9a" vector-effect="non-scaling-stroke" d="
  M 357.48 386.64
  L 356.75 387.05
  A 0.20 0.20 0.0 0 0 356.67 387.32
  L 356.73 387.42
  A 5.36 0.52 60.8 0 0 359.80 391.85
  L 359.97 391.75
  A 5.36 0.52 60.8 0 0 357.81 386.82
  L 357.75 386.71
  A 0.20 0.20 0.0 0 0 357.48 386.64"
/>
<path stroke="#b3cc9a" vector-effect="non-scaling-stroke" d="
  M 380.77 392.02
  Q 379.89 393.11 378.22 393.03
  Q 377.57 392.99 378.05 393.43
  C 379.33 394.63 381.48 393.66 381.93 392.09
  Q 382.11 391.47 382.67 391.15
  Q 384.32 390.18 385.80 390.93
  A 0.71 0.70 38.1 0 0 386.56 390.84
  Q 388.03 389.61 386.75 387.41
  A 1.25 1.24 -50.9 0 0 384.49 387.65
  L 384.12 388.76
  Q 383.95 389.28 383.43 389.45
  L 383.03 389.57
  A 0.62 0.62 0.0 0 1 382.24 389.10
  Q 382.11 388.47 381.67 388.02
  Q 380.51 386.84 379.48 388.13
  Q 378.63 389.21 379.05 390.39
  Q 379.20 390.81 379.63 390.95
  L 380.54 391.25
  Q 381.21 391.47 380.77 392.02"
/>
<path stroke="#b3cc9a" vector-effect="non-scaling-stroke" d="
  M 369.07 392.37
  Q 368.60 391.13 369.58 389.74
  A 0.05 0.05 0.0 0 0 369.57 389.67
  L 369.35 389.53
  Q 369.20 389.43 369.11 389.58
  Q 367.77 391.49 368.64 393.53
  A 1.53 1.53 0.0 0 0 371.35 393.71
  C 372.60 391.64 374.20 389.02 376.87 388.84
  A 0.69 0.69 0.0 0 0 377.13 387.53
  Q 376.38 387.16 375.61 387.60
  Q 372.66 389.25 370.99 392.49
  A 1.05 1.05 0.0 0 1 369.07 392.37"
/>
<path stroke="#b3cc9a" vector-effect="non-scaling-stroke" d="
  M 347.43 392.74
  Q 345.92 391.49 345.47 389.78
  Q 345.17 388.66 344.07 389.08
  A 0.54 0.54 0.0 0 0 343.84 389.92
  L 346.29 393.00
  Q 346.57 393.36 346.29 393.71
  Q 345.59 394.62 344.59 395.21
  Q 343.93 395.60 344.70 395.61
  Q 346.42 395.63 347.36 394.16
  Q 347.71 393.61 348.10 394.14
  Q 348.19 394.26 348.31 394.35
  Q 348.76 394.66 349.30 394.57
  L 354.46 393.68
  Q 354.92 393.61 355.20 393.23
  Q 356.05 392.06 355.91 390.50
  Q 355.87 390.07 355.45 390.18
  L 355.07 390.27
  Q 355.01 390.29 355.02 390.35
  Q 355.28 391.65 354.59 392.24
  Q 353.89 392.84 354.02 391.93
  Q 354.07 391.54 353.74 391.36
  Q 353.07 391.00 353.03 391.75
  L 353.00 392.34
  Q 352.95 393.21 352.26 392.68
  Q 351.98 392.46 351.99 392.09
  Q 352.01 391.28 351.47 391.87
  C 351.07 392.30 350.92 392.84 350.36 393.12
  Q 349.73 393.44 349.15 393.14
  Q 348.61 392.86 348.59 392.25
  L 348.44 387.94
  Q 348.43 387.63 348.12 387.63
  L 347.73 387.63
  Q 347.66 387.63 347.64 387.71
  Q 347.27 390.27 347.87 392.45
  Q 348.11 393.30 347.43 392.74"
/>
<path stroke="#b3cc9a" vector-effect="non-scaling-stroke" d="
  M 341.32 395.41
  L 342.26 395.52
  Q 343.07 395.62 343.46 394.90
  Q 344.38 393.22 343.20 392.22
  Q 341.32 390.64 340.72 393.01
  C 339.74 396.87 336.13 399.04 333.00 400.97
  Q 331.16 402.10 333.23 401.49
  Q 338.36 399.97 340.68 395.74
  Q 340.89 395.36 341.32 395.41"
/>
<path stroke="#b3cc9a" vector-effect="non-scaling-stroke" d="
  M 405.68 393.39
  L 405.68 393.06
  Q 405.68 392.89 405.52 392.84
  Q 404.27 392.44 403.11 392.56
  Q 402.74 392.61 402.75 392.98
  L 402.77 393.43
  Q 402.79 393.96 403.27 393.74
  Q 404.30 393.28 405.30 393.66
  Q 405.68 393.81 405.68 393.39"
/>
<path stroke="#b3cc9a" vector-effect="non-scaling-stroke" d="
  M 411.90 396.04
  Q 371.08 394.49 330.49 403.64
  A 0.35 0.34 83.0 0 0 330.22 403.99
  L 330.24 404.96
  A 0.26 0.26 0.0 0 0 330.56 405.21
  Q 376.53 394.53 422.99 398.26
  Q 423.62 398.31 423.45 397.71
  L 423.34 397.35
  A 0.70 0.69 84.9 0 0 422.75 396.85
  Q 417.20 396.24 411.90 396.04"
/>
<path stroke="#b3cc9a" vector-effect="non-scaling-stroke" d="
  M 396.32 387.50
  Q 395.72 387.74 395.42 388.29
  Q 395.21 388.67 395.61 388.85
  Q 396.02 389.03 396.49 389.03
  Q 396.98 389.03 397.10 388.56
  Q 397.18 388.22 397.09 387.89
  A 0.58 0.57 71.6 0 0 396.32 387.50"
/>
<path stroke="#b3cc9a" vector-effect="non-scaling-stroke" d="
  M 409.15 387.95
  Q 409.04 387.43 408.54 387.51
  Q 408.31 387.54 408.20 387.75
  L 407.80 388.50
  Q 407.54 389.00 408.09 389.01
  Q 409.47 389.06 410.65 389.85
  Q 411.56 390.46 411.14 389.45
  Q 410.82 388.70 409.87 388.60
  A 0.82 0.82 0.0 0 1 409.15 387.95"
/>
<path stroke="#b3cc9a" vector-effect="non-scaling-stroke" d="
  M 385.58 389.47
  A 0.45 0.44 -75.7 0 0 386.23 389.08
  Q 386.24 388.37 385.61 388.12
  A 0.42 0.41 -72.7 0 0 385.05 388.42
  Q 384.90 389.11 385.58 389.47"
/>
<path stroke="#b3cc9a" vector-effect="non-scaling-stroke" d="
  M 380.02 388.80
  A 0.51 0.50 47.7 0 0 379.98 389.67
  Q 380.62 390.09 380.96 389.91
  A 0.60 0.59 -47.5 0 0 380.92 388.84
  Q 380.37 388.61 380.02 388.80"
/>
<path stroke="#b3cc9a" vector-effect="non-scaling-stroke" d="
  M 341.23 393.72
  Q 341.83 394.34 342.56 394.21
  A 0.51 0.51 0.0 0 0 342.76 393.29
  Q 342.00 392.77 341.29 393.21
  A 0.33 0.33 0.0 0 0 341.23 393.72"
/>
<path stroke="#b3cc9a" vector-effect="non-scaling-stroke" d="
  M 475.2038 521.7200
  A 7.90 4.99 89.9 0 0 480.1800 513.8113
  A 7.90 4.99 89.9 0 0 475.1762 505.9200
  A 7.90 4.99 89.9 0 0 470.2000 513.8287
  A 7.90 4.99 89.9 0 0 475.2038 521.7200"
/>
<path stroke="#b3cc9a" vector-effect="non-scaling-stroke" d="
  M 606.1938 521.7200
  A 7.91 5.00 89.9 0 0 611.1800 513.8013
  A 7.91 5.00 89.9 0 0 606.1662 505.9000
  A 7.91 5.00 89.9 0 0 601.1800 513.8187
  A 7.91 5.00 89.9 0 0 606.1938 521.7200"
/>
<path stroke="#b3cc9a" vector-effect="non-scaling-stroke" d="
  M 213.30 509.01
  L 210.94 515.92
  Q 210.70 516.60 211.42 516.60
  L 215.53 516.59
  Q 216.33 516.59 216.08 515.83
  L 213.78 509.01
  Q 213.54 508.31 213.30 509.01"
/>
<path stroke="#b3cc9a" vector-effect="non-scaling-stroke" d="
  M 264.48 515.97
  L 262.12 509.07
  Q 261.85 508.26 261.58 509.07
  L 259.32 515.87
  Q 259.07 516.60 259.84 516.60
  L 264.04 516.58
  Q 264.68 516.58 264.48 515.97"
/>
<path stroke="#b3cc9a" vector-effect="non-scaling-stroke" d="
  M 311.29 516.25
  A 0.24 0.24 0.0 0 0 311.51 516.56
  L 316.41 516.61
  Q 316.81 516.62 316.68 516.24
  L 314.17 508.76
  Q 314.00 508.26 313.83 508.76
  L 311.29 516.25"
/>
<path stroke="#b3cc9a" vector-effect="non-scaling-stroke" d="
  M 340.10 506.63
  L 340.12 512.75
  A 0.32 0.32 0.0 0 0 340.44 513.07
  L 343.97 513.06
  A 3.39 2.96 -0.1 0 0 347.35 510.09
  L 347.35 509.25
  A 3.39 2.96 -0.1 0 0 343.95 506.30
  L 340.42 506.31
  A 0.32 0.32 0.0 0 0 340.10 506.63"
/>
<path stroke="#b3cc9a" vector-effect="non-scaling-stroke" d="
  M 394.24 516.57
  Q 394.68 516.57 394.54 516.16
  L 392.19 508.76
  A 0.24 0.24 0.0 0 0 391.73 508.75
  L 389.32 515.88
  Q 389.09 516.59 389.83 516.58
  L 394.24 516.57"
/>
<path stroke="#b3cc9a" vector-effect="non-scaling-stroke" d="
  M 408.85 506.61
  L 408.83 512.73
  A 0.32 0.32 0.0 0 0 409.15 513.05
  L 412.99 513.06
  A 3.27 3.16 -89.8 0 0 416.16 509.80
  L 416.16 509.58
  A 3.27 3.16 -89.8 0 0 413.01 506.30
  L 409.17 506.29
  A 0.32 0.32 0.0 0 0 408.85 506.61"
/>
<path stroke="#b3cc9a" vector-effect="non-scaling-stroke" d="
  M 534.72 506.68
  L 534.76 520.86
  A 0.41 0.41 0.0 0 0 535.18 521.27
  L 537.00 521.27
  A 5.62 5.57 89.8 0 0 542.55 515.63
  L 542.53 511.87
  A 5.62 5.57 89.8 0 0 536.94 506.27
  L 535.12 506.27
  A 0.41 0.41 0.0 0 0 534.72 506.68"
/>
<path stroke="#b3cc9a" vector-effect="non-scaling-stroke" d="
  M 555.95 516.13
  A 0.35 0.35 0.0 0 0 556.28 516.59
  L 560.93 516.58
  A 0.35 0.35 0.0 0 0 561.26 516.12
  L 558.92 508.98
  A 0.35 0.35 0.0 0 0 558.26 508.98
  L 555.95 516.13"
/>
</g>
<path fill="#ffffff" d="
  M 0.00 0.00
  L 774.00 0.00
  L 774.00 774.00
  L 0.00 774.00
  L 0.00 0.00
  Z
  M 559.92 442.98
  Q 560.56 443.18 561.20 443.31
  Q 561.74 443.42 561.74 442.87
  Q 561.80 433.54 561.79 424.03
  C 561.79 420.94 559.37 419.16 559.35 415.95
  Q 559.30 408.65 558.76 401.10
  Q 554.34 339.10 514.54 294.38
  C 483.98 260.03 440.74 237.87 396.77 226.28
  A 3.82 3.82 0.0 0 0 394.81 226.28
  C 360.54 235.42 327.14 250.73 300.00 272.69
  Q 237.86 322.98 232.76 403.75
  Q 232.42 409.18 232.41 415.81
  C 232.41 419.81 229.78 422.90 229.83 427.02
  Q 229.92 434.92 229.84 443.13
  Q 229.83 443.79 230.47 443.61
  Q 328.00 416.15 427.72 420.22
  Q 496.95 423.05 559.92 442.98
  Z
  M 227.39 406.49
  C 228.39 380.07 234.64 353.59 246.68 330.35
  A 0.34 0.33 24.8 0 0 246.50 329.88
  Q 241.70 328.11 236.01 326.57
  Q 234.20 326.08 232.35 326.61
  Q 208.43 333.48 191.46 346.01
  Q 155.37 372.64 154.81 417.93
  C 154.78 419.92 153.56 421.19 153.56 423.31
  Q 153.54 430.41 153.51 437.95
  A 0.46 0.45 -7.3 0 0 154.09 438.39
  Q 188.23 428.68 224.03 425.77
  Q 224.67 425.72 224.68 425.09
  L 224.72 422.39
  Q 224.73 421.88 224.94 421.42
  C 225.83 419.39 227.07 417.63 227.12 415.32
  Q 227.22 411.05 227.39 406.49
  Z
  M 604.92 349.62
  C 591.84 338.79 576.07 331.39 559.48 326.62
  Q 557.55 326.07 555.68 326.59
  Q 550.23 328.09 545.42 329.78
  A 0.46 0.45 66.8 0 0 545.17 330.42
  C 558.57 357.05 564.57 386.09 564.62 415.90
  Q 564.62 417.61 566.14 419.93
  C 567.13 421.45 567.24 423.23 566.96 424.96
  Q 566.84 425.71 567.60 425.77
  Q 602.24 428.49 637.49 438.34
  A 0.55 0.54 7.3 0 0 638.18 437.81
  Q 638.07 430.52 638.23 422.98
  C 638.27 420.99 636.92 419.92 636.91 417.98
  Q 636.48 375.76 604.92 349.62
  Z
  M 570.49 451.83
  C 507.10 430.26 439.74 422.49 372.77 425.89
  C 321.40 428.50 270.64 436.79 222.09 451.73
  Q 221.54 451.90 221.54 452.47
  L 221.54 478.00
  A 0.47 0.47 0.0 0 0 222.01 478.47
  L 570.16 478.47
  Q 570.79 478.47 570.79 477.84
  L 570.80 452.27
  A 0.47 0.47 0.0 0 0 570.49 451.83
  Z
  M 217.01 447.34
  L 223.99 445.20
  Q 224.59 445.01 224.60 444.38
  L 224.72 432.71
  Q 224.73 431.97 223.99 432.01
  Q 190.55 433.52 157.81 442.53
  Q 154.08 443.55 150.40 444.90
  Q 149.31 445.30 149.31 446.47
  L 149.28 459.19
  Q 149.27 459.86 149.94 459.86
  L 215.72 459.86
  Q 216.30 459.86 216.30 459.28
  L 216.30 448.31
  Q 216.30 447.56 217.01 447.34
  Z
  M 575.47 448.21
  L 575.46 459.29
  Q 575.46 459.86 576.04 459.86
  L 641.71 459.86
  Q 642.29 459.86 642.29 459.28
  L 642.29 446.22
  A 1.55 1.55 0.0 0 0 641.20 444.74
  Q 605.37 433.63 567.90 432.05
  Q 567.21 432.02 567.20 432.72
  L 567.10 444.49
  Q 567.10 444.97 567.56 445.12
  L 574.84 447.35
  A 0.90 0.89 -81.8 0 1 575.47 448.21
  Z
  M 174.02 506.75
  C 176.02 505.41 179.70 505.61 180.20 508.59
  Q 180.31 509.26 180.99 509.26
  L 184.29 509.24
  Q 185.00 509.24 184.85 508.55
  Q 183.84 503.58 178.90 502.69
  C 174.67 501.93 168.86 503.19 168.62 508.52
  C 168.39 513.66 175.49 515.37 179.12 516.73
  A 2.06 2.05 15.3 0 1 180.42 519.00
  Q 180.02 521.41 177.43 521.59
  Q 172.80 521.92 172.44 518.26
  Q 172.40 517.84 171.97 517.84
  L 168.34 517.84
  A 0.50 0.49 -4.5 0 0 167.85 518.41
  C 168.76 524.35 174.97 526.12 180.10 524.79
  C 184.73 523.60 186.61 518.31 183.03 514.71
  C 181.03 512.71 177.93 512.08 175.37 511.11
  Q 173.01 510.21 173.20 508.13
  A 1.86 1.84 76.0 0 1 174.02 506.75
  Z
  M 368.18 507.83
  C 370.26 504.90 375.72 505.50 375.95 509.71
  Q 375.98 510.23 376.50 510.22
  L 380.01 510.21
  Q 380.43 510.21 380.45 509.79
  Q 380.49 508.97 380.21 508.24
  Q 377.80 501.82 370.62 502.57
  C 362.81 503.38 361.59 511.37 362.84 517.82
  Q 364.06 524.09 370.20 525.06
  C 374.76 525.79 380.21 523.14 380.44 518.00
  Q 380.46 517.50 379.96 517.50
  L 376.52 517.50
  Q 376.02 517.50 375.95 518.00
  C 375.33 522.93 367.86 522.77 367.34 517.55
  C 367.09 514.97 366.60 510.04 368.18 507.83
  Z
  M 475.2404 525.3699
  A 11.56 9.64 89.8 0 0 484.8399 513.7764
  A 11.56 9.64 89.8 0 0 475.1596 502.2501
  A 11.56 9.64 89.8 0 0 465.5601 513.8436
  A 11.56 9.64 89.8 0 0 475.2404 525.3699
  Z
  M 606.2001 525.3600
  A 11.54 9.65 89.9 0 0 615.8300 513.8032
  A 11.54 9.65 89.9 0 0 606.1599 502.2800
  A 11.54 9.65 89.9 0 0 596.5300 513.8368
  A 11.54 9.65 89.9 0 0 606.2001 525.3600
  Z
  M 164.64 503.20
  A 0.44 0.44 0.0 0 0 164.20 502.76
  L 160.48 502.76
  A 0.44 0.44 0.0 0 0 160.04 503.20
  L 160.04 524.50
  A 0.44 0.44 0.0 0 0 160.48 524.94
  L 164.20 524.94
  A 0.44 0.44 0.0 0 0 164.64 524.50
  L 164.64 503.20
  Z
  M 192.94 521.25
  A 0.45 0.45 0.0 0 1 192.49 520.80
  L 192.51 503.20
  A 0.45 0.45 0.0 0 0 192.05 502.75
  L 188.35 502.79
  A 0.45 0.45 0.0 0 0 187.91 503.24
  L 187.94 524.45
  A 0.45 0.45 0.0 0 0 188.39 524.90
  L 201.56 524.87
  A 0.45 0.45 0.0 0 0 202.01 524.44
  L 202.15 521.73
  A 0.45 0.45 0.0 0 0 201.70 521.26
  L 192.94 521.25
  Z
  M 217.12 520.21
  A 0.52 0.52 0.0 0 1 217.62 520.57
  L 218.88 524.51
  A 0.52 0.52 0.0 0 0 219.36 524.87
  L 223.12 524.97
  A 0.52 0.52 0.0 0 0 223.62 524.27
  L 215.78 503.10
  A 0.52 0.52 0.0 0 0 215.29 502.76
  L 211.72 502.78
  A 0.52 0.52 0.0 0 0 211.23 503.12
  L 203.41 524.25
  A 0.52 0.52 0.0 0 0 203.90 524.95
  L 207.69 524.94
  A 0.52 0.52 0.0 0 0 208.19 524.57
  L 209.36 520.59
  A 0.52 0.52 0.0 0 1 209.86 520.22
  L 217.12 520.21
  Z
  M 244.80 509.81
  L 244.45 524.20
  A 0.75 0.74 0.7 0 0 245.20 524.96
  L 248.09 524.94
  Q 249.11 524.93 249.11 523.91
  L 249.06 503.42
  Q 249.06 502.77 248.42 502.77
  L 243.69 502.78
  Q 243.15 502.78 242.97 503.29
  L 237.94 517.81
  Q 237.51 519.06 237.08 517.81
  L 232.06 503.29
  A 0.79 0.78 79.6 0 0 231.31 502.77
  L 226.27 502.81
  A 0.38 0.38 0.0 0 0 225.89 503.19
  L 225.93 524.17
  Q 225.93 524.91 226.67 524.92
  L 229.82 524.94
  A 0.74 0.74 0.0 0 0 230.57 524.18
  L 230.21 509.67
  Q 230.18 508.71 230.51 509.61
  L 235.70 524.14
  Q 235.97 524.90 236.78 524.92
  L 238.34 524.97
  Q 238.98 524.99 239.20 524.39
  L 244.50 509.76
  Q 244.83 508.86 244.80 509.81
  Z
  M 257.67 520.69
  A 0.64 0.64 0.0 0 1 258.28 520.23
  L 265.38 520.19
  A 0.64 0.64 0.0 0 1 265.99 520.64
  L 267.16 524.40
  A 0.64 0.64 0.0 0 0 267.74 524.85
  L 271.31 525.02
  A 0.64 0.64 0.0 0 0 271.94 524.16
  L 264.15 503.19
  A 0.64 0.64 0.0 0 0 263.55 502.77
  L 260.15 502.77
  A 0.64 0.64 0.0 0 0 259.55 503.19
  L 251.82 524.09
  A 0.64 0.64 0.0 0 0 252.42 524.95
  L 255.95 524.93
  A 0.64 0.64 0.0 0 0 256.56 524.47
  L 257.67 520.69
  Z
  M 278.87 516.11
  A 0.37 0.37 0.0 0 1 279.24 515.74
  L 287.25 515.77
  A 0.37 0.37 0.0 0 0 287.62 515.41
  L 287.68 512.53
  A 0.37 0.37 0.0 0 0 287.31 512.15
  L 279.22 512.20
  A 0.37 0.37 0.0 0 1 278.85 511.83
  L 278.83 506.68
  A 0.37 0.37 0.0 0 1 279.20 506.31
  L 288.28 506.29
  A 0.37 0.37 0.0 0 0 288.65 505.91
  L 288.61 503.13
  A 0.37 0.37 0.0 0 0 288.24 502.77
  L 274.66 502.77
  A 0.37 0.37 0.0 0 0 274.29 503.14
  L 274.29 524.56
  A 0.37 0.37 0.0 0 0 274.66 524.93
  L 278.52 524.92
  A 0.37 0.37 0.0 0 0 278.89 524.55
  L 278.87 516.11
  Z
  M 295.87 516.18
  A 0.45 0.45 0.0 0 1 296.32 515.73
  L 304.24 515.77
  A 0.45 0.45 0.0 0 0 304.69 515.33
  L 304.75 512.65
  A 0.45 0.45 0.0 0 0 304.30 512.19
  L 296.30 512.21
  A 0.45 0.45 0.0 0 1 295.85 511.76
  L 295.83 506.74
  A 0.45 0.45 0.0 0 1 296.28 506.29
  L 305.25 506.30
  A 0.45 0.45 0.0 0 0 305.70 505.85
  L 305.68 503.22
  A 0.45 0.45 0.0 0 0 305.23 502.77
  L 291.73 502.77
  A 0.45 0.45 0.0 0 0 291.28 503.22
  L 291.29 524.48
  A 0.45 0.45 0.0 0 0 291.74 524.93
  L 295.44 524.93
  A 0.45 0.45 0.0 0 0 295.89 524.48
  L 295.87 516.18
  Z
  M 309.91 520.65
  A 0.62 0.62 0.0 0 1 310.50 520.22
  L 317.61 520.22
  A 0.62 0.62 0.0 0 1 318.21 520.67
  L 319.30 524.45
  A 0.62 0.62 0.0 0 0 319.88 524.89
  L 323.52 525.01
  A 0.62 0.62 0.0 0 0 324.12 524.17
  L 316.29 503.17
  A 0.62 0.62 0.0 0 0 315.71 502.77
  L 312.28 502.77
  A 0.62 0.62 0.0 0 0 311.70 503.18
  L 303.95 524.13
  A 0.62 0.62 0.0 0 0 304.54 524.97
  L 308.12 524.93
  A 0.62 0.62 0.0 0 0 308.70 524.49
  L 309.91 520.65
  Z
  M 331.29 503.17
  A 0.40 0.40 0.0 0 0 330.89 502.77
  L 327.15 502.77
  A 0.40 0.40 0.0 0 0 326.75 503.17
  L 326.75 524.51
  A 0.40 0.40 0.0 0 0 327.15 524.91
  L 330.89 524.91
  A 0.40 0.40 0.0 0 0 331.29 524.51
  L 331.29 503.17
  Z
  M 340.73 516.68
  L 343.17 516.69
  Q 343.77 516.69 344.03 517.24
  Q 345.82 521.09 347.80 524.66
  Q 347.83 524.71 347.88 524.72
  Q 349.07 525.09 352.60 524.88
  A 0.15 0.15 0.0 0 0 352.72 524.66
  L 348.23 516.05
  Q 348.01 515.64 348.41 515.40
  C 353.98 512.03 352.83 503.40 345.77 502.94
  Q 341.08 502.63 336.18 502.79
  Q 335.54 502.81 335.54 503.46
  L 335.53 524.23
  Q 335.53 524.92 336.23 524.93
  L 339.47 524.96
  A 0.68 0.68 0.0 0 0 340.15 524.28
  L 340.14 517.27
  Q 340.14 516.68 340.73 516.68
  Z
  M 395.59 520.24
  A 0.52 0.52 0.0 0 1 396.08 520.60
  L 397.33 524.51
  A 0.52 0.52 0.0 0 0 397.81 524.87
  L 401.57 524.99
  A 0.52 0.52 0.0 0 0 402.08 524.29
  L 394.16 503.13
  A 0.52 0.52 0.0 0 0 393.68 502.80
  L 390.17 502.75
  A 0.52 0.52 0.0 0 0 389.67 503.09
  L 381.79 524.26
  A 0.52 0.52 0.0 0 0 382.28 524.97
  L 386.02 524.90
  A 0.52 0.52 0.0 0 0 386.50 524.54
  L 387.86 520.55
  A 0.52 0.52 0.0 0 1 388.35 520.20
  L 395.59 520.24
  Z
  M 417.34 515.26
  Q 420.70 513.48 420.66 509.61
  Q 420.60 503.51 414.55 502.97
  Q 410.17 502.57 404.89 502.82
  Q 404.29 502.84 404.29 503.44
  L 404.28 524.23
  Q 404.28 524.94 404.98 524.93
  L 408.23 524.92
  Q 408.87 524.92 408.87 524.27
  L 408.89 517.37
  Q 408.89 516.77 409.48 516.73
  Q 410.53 516.64 411.63 516.66
  Q 412.44 516.67 412.83 517.38
  Q 414.82 521.01 416.49 524.60
  A 0.56 0.56 0.0 0 0 417.00 524.93
  L 421.35 524.92
  A 0.18 0.18 0.0 0 0 421.51 524.66
  L 417.07 516.13
  Q 416.77 515.56 417.34 515.26
  Z
  M 428.99 515.26
  L 437.09 515.27
  Q 437.44 515.27 437.45 514.91
  L 437.48 512.22
  A 0.43 0.43 0.0 0 0 437.05 511.78
  Q 432.96 511.79 429.01 511.78
  A 0.29 0.29 0.0 0 1 428.73 511.49
  Q 428.73 511.48 428.72 506.57
  Q 428.72 506.28 429.00 506.28
  L 438.73 506.30
  Q 439.01 506.30 439.00 506.02
  L 438.98 503.12
  A 0.36 0.36 0.0 0 0 438.62 502.77
  L 424.84 502.77
  A 0.64 0.63 89.5 0 0 424.22 503.41
  L 424.21 524.30
  Q 424.21 524.88 424.80 524.88
  L 438.56 524.87
  Q 438.99 524.87 438.99 524.44
  L 439.00 521.75
  Q 439.00 521.24 438.50 521.24
  L 428.99 521.25
  Q 428.73 521.25 428.73 520.99
  L 428.73 515.51
  Q 428.73 515.26 428.99 515.26
  Z
  M 453.99 516.11
  A 0.37 0.37 0.0 0 1 454.36 515.74
  L 462.41 515.77
  A 0.37 0.37 0.0 0 0 462.78 515.41
  L 462.84 512.56
  A 0.37 0.37 0.0 0 0 462.47 512.18
  L 454.37 512.21
  A 0.37 0.37 0.0 0 1 454.00 511.84
  L 453.96 506.68
  A 0.37 0.37 0.0 0 1 454.33 506.31
  L 463.53 506.29
  A 0.37 0.37 0.0 0 0 463.90 505.91
  L 463.86 503.13
  A 0.37 0.37 0.0 0 0 463.49 502.77
  L 449.83 502.77
  A 0.37 0.37 0.0 0 0 449.46 503.14
  L 449.47 524.56
  A 0.37 0.37 0.0 0 0 449.84 524.93
  L 453.62 524.92
  A 0.37 0.37 0.0 0 0 453.99 524.55
  L 453.99 516.11
  Z
  M 499.95 517.73
  C 499.97 523.05 492.25 522.91 492.23 517.54
  Q 492.20 510.22 492.21 503.21
  A 0.44 0.44 0.0 0 0 491.77 502.77
  L 488.22 502.77
  Q 487.70 502.77 487.70 503.29
  Q 487.73 509.54 487.66 517.18
  C 487.57 528.05 504.38 527.55 504.50 518.15
  Q 504.59 511.27 504.54 503.25
  Q 504.54 502.76 504.06 502.77
  L 500.47 502.79
  A 0.51 0.50 0.0 0 0 499.96 503.29
  Q 499.93 510.52 499.95 517.73
  Z
  M 521.77 516.42
  A 0.31 0.31 0.0 0 1 521.19 516.58
  L 513.00 502.94
  A 0.31 0.31 0.0 0 0 512.74 502.79
  L 508.59 502.76
  A 0.31 0.31 0.0 0 0 508.28 503.07
  L 508.27 524.65
  A 0.31 0.31 0.0 0 0 508.58 524.96
  L 512.51 524.96
  A 0.31 0.31 0.0 0 0 512.82 524.65
  L 512.78 510.90
  A 0.31 0.31 0.0 0 1 513.36 510.75
  L 521.70 524.79
  A 0.31 0.31 0.0 0 0 521.97 524.94
  L 525.94 524.94
  A 0.31 0.31 0.0 0 0 526.25 524.63
  L 526.25 503.07
  A 0.31 0.31 0.0 0 0 525.94 502.76
  L 522.03 502.79
  A 0.31 0.31 0.0 0 0 521.72 503.10
  L 521.77 516.42
  Z
  M 530.25 503.27
  L 530.17 524.33
  A 0.56 0.56 0.0 0 0 530.73 524.89
  L 537.16 524.91
  A 10.13 10.01 -89.8 0 0 547.21 514.82
  L 547.21 512.90
  A 10.13 10.01 -89.8 0 0 537.24 502.73
  L 530.81 502.71
  A 0.56 0.56 0.0 0 0 530.25 503.27
  Z
  M 555.19 520.22
  L 562.01 520.23
  Q 562.58 520.23 562.76 520.76
  L 564.00 524.47
  Q 564.22 525.12 564.89 524.97
  Q 566.46 524.61 568.07 525.05
  A 0.58 0.58 0.0 0 0 568.77 524.29
  L 560.86 503.24
  Q 560.68 502.75 560.16 502.76
  L 556.83 502.79
  A 0.54 0.53 -79.7 0 0 556.33 503.14
  L 548.47 524.20
  A 0.53 0.53 0.0 0 0 548.97 524.92
  L 552.43 524.90
  Q 553.05 524.90 553.24 524.31
  L 554.38 520.80
  Q 554.57 520.22 555.19 520.22
  Z
  M 579.59 506.28
  L 585.50 506.30
  A 0.29 0.28 90.0 0 0 585.79 506.00
  L 585.78 503.02
  Q 585.78 502.77 585.52 502.77
  L 568.24 502.77
  Q 567.75 502.77 567.75 503.26
  L 567.74 505.77
  Q 567.74 506.29 568.27 506.29
  L 573.83 506.29
  Q 574.37 506.29 574.37 506.83
  L 574.38 524.47
  A 0.55 0.55 0.0 0 0 575.06 525.00
  Q 576.51 524.63 578.23 525.04
  A 0.59 0.59 0.0 0 0 578.95 524.47
  L 578.95 506.91
  Q 578.95 506.28 579.59 506.28
  Z
  M 593.21 503.10
  A 0.32 0.32 0.0 0 0 592.89 502.78
  L 588.95 502.78
  A 0.32 0.32 0.0 0 0 588.63 503.10
  L 588.63 524.58
  A 0.32 0.32 0.0 0 0 588.95 524.90
  L 592.89 524.90
  A 0.32 0.32 0.0 0 0 593.21 524.58
  L 593.21 503.10
  Z
  M 623.08 524.93
  A 0.30 0.30 0.0 0 0 623.39 524.62
  L 623.33 510.92
  A 0.30 0.30 0.0 0 1 623.89 510.77
  L 632.18 524.74
  A 0.30 0.30 0.0 0 0 632.44 524.88
  L 636.49 524.95
  A 0.30 0.30 0.0 0 0 636.79 524.65
  L 636.79 503.05
  A 0.30 0.30 0.0 0 0 636.49 502.75
  L 632.54 502.79
  A 0.30 0.30 0.0 0 0 632.24 503.09
  L 632.27 516.48
  A 0.30 0.30 0.0 0 1 631.71 516.63
  L 623.53 502.95
  A 0.30 0.30 0.0 0 0 623.27 502.81
  L 619.09 502.78
  A 0.30 0.30 0.0 0 0 618.79 503.08
  L 618.79 524.56
  A 0.30 0.30 0.0 0 0 619.09 524.86
  L 623.08 524.93
  Z"
/>
<path fill="#669934" d="
  M 559.92 442.98
  Q 496.95 423.05 427.72 420.22
  Q 328.00 416.15 230.47 443.61
  Q 229.83 443.79 229.84 443.13
  Q 229.92 434.92 229.83 427.02
  C 229.78 422.90 232.41 419.81 232.41 415.81
  Q 232.42 409.18 232.76 403.75
  Q 237.86 322.98 300.00 272.69
  C 327.14 250.73 360.54 235.42 394.81 226.28
  A 3.82 3.82 0.0 0 1 396.77 226.28
  C 440.74 237.87 483.98 260.03 514.54 294.38
  Q 554.34 339.10 558.76 401.10
  Q 559.30 408.65 559.35 415.95
  C 559.37 419.16 561.79 420.94 561.79 424.03
  Q 561.80 433.54 561.74 442.87
  Q 561.74 443.42 561.20 443.31
  Q 560.56 443.18 559.92 442.98
  Z
  M 397.78 337.69
  A 1.93 1.92 46.6 0 1 397.71 340.17
  C 395.61 342.51 393.39 343.76 390.87 345.46
  C 379.71 352.97 364.35 359.78 350.29 358.21
  C 337.63 356.80 338.69 341.67 342.23 333.12
  C 345.07 326.29 348.08 319.59 348.46 312.19
  Q 348.49 311.59 347.96 311.29
  L 345.23 309.77
  Q 344.56 309.40 344.52 310.17
  C 344.05 319.32 339.42 327.44 334.89 335.47
  C 329.43 345.15 323.74 358.60 336.24 365.93
  C 346.48 371.94 357.88 370.89 369.23 367.32
  Q 382.18 363.24 392.39 355.76
  C 398.08 351.59 402.30 346.20 403.51 339.27
  C 405.47 327.97 399.32 323.68 389.70 322.53
  C 384.77 321.94 379.80 321.30 375.10 319.83
  Q 371.79 318.79 371.01 315.74
  C 370.29 312.92 373.29 310.63 374.67 308.85
  Q 380.64 301.17 389.71 297.52
  C 397.36 294.45 398.86 302.43 400.28 307.46
  A 0.63 0.63 0.0 0 0 401.40 307.66
  Q 408.55 297.76 402.14 288.14
  C 399.18 283.71 393.76 284.89 389.83 286.85
  Q 380.56 291.47 372.98 300.46
  Q 366.14 308.58 365.01 322.09
  C 364.84 324.11 364.73 326.19 366.01 327.78
  Q 368.27 330.58 372.41 331.43
  Q 378.66 332.73 385.40 333.55
  C 388.32 333.90 395.84 335.28 397.78 337.69
  Z
  M 425.71 330.29
  Q 415.69 336.75 411.42 348.04
  C 406.35 361.43 407.94 377.56 417.16 388.43
  Q 425.73 398.54 440.25 405.88
  Q 440.82 406.16 441.27 405.73
  L 449.89 397.63
  A 0.41 0.40 32.8 0 0 449.74 396.95
  C 437.01 392.66 423.78 383.53 417.82 371.22
  Q 411.40 357.96 420.54 346.68
  C 429.90 335.13 444.40 330.27 458.75 328.64
  Q 461.00 328.39 462.61 327.11
  A 1.27 1.24 77.9 0 0 463.05 326.41
  L 465.35 317.03
  Q 465.47 316.50 464.94 316.58
  Q 452.84 318.36 440.12 322.55
  C 438.08 323.22 436.08 323.18 434.22 322.06
  C 429.40 319.16 423.41 314.42 420.62 309.45
  C 418.80 306.20 419.67 302.38 423.19 300.78
  C 432.33 296.61 441.80 298.54 450.40 303.52
  Q 450.86 303.78 451.22 303.40
  L 451.89 302.69
  Q 452.29 302.27 451.97 301.78
  C 445.82 292.32 435.09 284.12 424.03 290.19
  C 417.59 293.73 414.04 301.15 413.23 308.40
  Q 412.48 315.13 417.56 321.06
  Q 421.38 325.50 425.77 329.43
  Q 426.31 329.91 425.71 330.29
  Z
  M 342.30 300.37
  A 2.55 2.55 0.0 0 0 343.28 304.20
  L 346.88 305.87
  A 2.55 2.55 0.0 0 0 349.98 305.10
  L 353.19 300.89
  A 2.55 2.55 0.0 0 0 352.27 297.04
  L 348.62 295.29
  A 2.55 2.55 0.0 0 0 345.47 296.08
  L 342.30 300.37
  Z
  M 407.22 377.05
  Q 387.54 376.49 367.91 378.41
  A 0.41 0.41 0.0 0 0 367.55 378.90
  L 367.61 379.23
  Q 367.74 379.89 368.42 379.83
  Q 387.96 377.91 407.44 378.60
  A 0.47 0.46 -86.1 0 0 407.92 378.17
  L 407.95 377.87
  A 0.76 0.75 -87.1 0 0 407.22 377.05
  Z
  M 389.43 382.99
  Q 389.74 382.99 390.02 382.86
  Q 390.60 382.58 390.23 382.05
  Q 389.89 381.58 389.38 381.23
  A 0.49 0.48 -58.3 0 0 388.69 381.40
  Q 388.18 382.29 388.69 383.27
  A 0.25 0.24 -17.8 0 0 388.95 383.40
  Q 389.20 383.36 389.25 383.14
  A 0.19 0.18 -84.2 0 1 389.43 382.99
  Z
  M 396.16 383.31
  Q 395.88 383.15 395.57 383.46
  Q 395.09 383.94 395.73 384.18
  Q 396.77 384.59 397.56 384.18
  Q 399.04 383.43 397.38 383.23
  Q 397.06 383.20 396.76 383.33
  Q 396.46 383.47 396.16 383.31
  Z
  M 388.99 383.80
  L 389.21 390.62
  A 0.10 0.10 0.0 0 0 389.32 390.71
  L 389.50 390.71
  A 3.01 0.82 88.1 0 0 390.22 387.67
  L 390.18 386.67
  A 3.01 0.82 88.1 0 0 389.26 383.69
  L 389.08 383.70
  A 0.10 0.10 0.0 0 0 388.99 383.80
  Z
  M 403.44 389.17
  Q 402.05 389.74 401.22 388.48
  A 0.34 0.34 0.0 0 0 400.66 388.45
  Q 399.96 389.31 398.88 389.29
  A 1.00 1.00 0.0 0 1 397.90 388.34
  L 397.78 385.77
  Q 397.76 385.18 397.31 385.56
  L 394.83 387.72
  A 1.44 1.44 0.0 0 0 395.86 390.24
  L 396.98 390.16
  A 1.80 1.77 59.1 0 1 398.02 390.43
  Q 399.00 391.05 400.04 390.46
  Q 400.51 390.19 401.00 390.43
  Q 402.26 391.05 403.56 390.56
  Q 404.27 390.29 404.93 390.66
  C 406.49 391.53 408.19 389.98 410.27 391.01
  A 1.35 1.35 0.0 0 0 412.22 389.87
  C 412.31 387.93 410.42 387.08 409.09 386.02
  Q 408.58 385.62 408.21 386.16
  Q 407.34 387.41 407.04 388.76
  A 0.99 0.99 0.0 0 1 405.61 389.41
  Q 404.92 389.05 404.73 388.26
  Q 404.65 387.91 404.37 388.12
  Q 404.23 388.22 404.18 388.37
  Q 403.99 388.94 403.44 389.17
  Z
  M 401.7232 386.6102
  A 1.16 0.84 22.3 0 0 400.9687 385.3928
  A 1.16 0.84 22.3 0 0 399.5768 385.7298
  A 1.16 0.84 22.3 0 0 400.3313 386.9472
  A 1.16 0.84 22.3 0 0 401.7232 386.6102
  Z
  M 363.6714 392.7696
  A 3.68 0.59 89.2 0 0 364.2099 389.0818
  A 3.68 0.59 89.2 0 0 363.5686 385.4104
  A 3.68 0.59 89.2 0 0 363.0301 389.0982
  A 3.68 0.59 89.2 0 0 363.6714 392.7696
  Z
  M 360.27 391.99
  Q 359.07 392.89 357.82 393.03
  Q 357.24 393.10 357.51 393.63
  Q 358.04 394.67 357.11 395.38
  A 0.65 0.65 0.0 0 0 357.37 396.53
  Q 357.98 396.66 358.42 396.29
  Q 358.64 396.10 358.59 395.82
  L 358.35 394.50
  Q 358.24 393.87 358.88 393.85
  C 362.45 393.75 361.25 389.90 361.93 387.58
  Q 362.03 387.23 361.89 386.89
  Q 361.77 386.59 361.51 386.40
  A 0.63 0.62 -74.3 0 0 360.52 386.96
  L 360.82 390.77
  A 1.39 1.39 0.0 0 1 360.27 391.99
  Z
  M 357.48 386.64
  L 356.75 387.05
  A 0.20 0.20 0.0 0 0 356.67 387.32
  L 356.73 387.42
  A 5.36 0.52 60.8 0 0 359.80 391.85
  L 359.97 391.75
  A 5.36 0.52 60.8 0 0 357.81 386.82
  L 357.75 386.71
  A 0.20 0.20 0.0 0 0 357.48 386.64
  Z
  M 380.77 392.02
  Q 379.89 393.11 378.22 393.03
  Q 377.57 392.99 378.05 393.43
  C 379.33 394.63 381.48 393.66 381.93 392.09
  Q 382.11 391.47 382.67 391.15
  Q 384.32 390.18 385.80 390.93
  A 0.71 0.70 38.1 0 0 386.56 390.84
  Q 388.03 389.61 386.75 387.41
  A 1.25 1.24 -50.9 0 0 384.49 387.65
  L 384.12 388.76
  Q 383.95 389.28 383.43 389.45
  L 383.03 389.57
  A 0.62 0.62 0.0 0 1 382.24 389.10
  Q 382.11 388.47 381.67 388.02
  Q 380.51 386.84 379.48 388.13
  Q 378.63 389.21 379.05 390.39
  Q 379.20 390.81 379.63 390.95
  L 380.54 391.25
  Q 381.21 391.47 380.77 392.02
  Z
  M 369.07 392.37
  Q 368.60 391.13 369.58 389.74
  A 0.05 0.05 0.0 0 0 369.57 389.67
  L 369.35 389.53
  Q 369.20 389.43 369.11 389.58
  Q 367.77 391.49 368.64 393.53
  A 1.53 1.53 0.0 0 0 371.35 393.71
  C 372.60 391.64 374.20 389.02 376.87 388.84
  A 0.69 0.69 0.0 0 0 377.13 387.53
  Q 376.38 387.16 375.61 387.60
  Q 372.66 389.25 370.99 392.49
  A 1.05 1.05 0.0 0 1 369.07 392.37
  Z
  M 347.43 392.74
  Q 345.92 391.49 345.47 389.78
  Q 345.17 388.66 344.07 389.08
  A 0.54 0.54 0.0 0 0 343.84 389.92
  L 346.29 393.00
  Q 346.57 393.36 346.29 393.71
  Q 345.59 394.62 344.59 395.21
  Q 343.93 395.60 344.70 395.61
  Q 346.42 395.63 347.36 394.16
  Q 347.71 393.61 348.10 394.14
  Q 348.19 394.26 348.31 394.35
  Q 348.76 394.66 349.30 394.57
  L 354.46 393.68
  Q 354.92 393.61 355.20 393.23
  Q 356.05 392.06 355.91 390.50
  Q 355.87 390.07 355.45 390.18
  L 355.07 390.27
  Q 355.01 390.29 355.02 390.35
  Q 355.28 391.65 354.59 392.24
  Q 353.89 392.84 354.02 391.93
  Q 354.07 391.54 353.74 391.36
  Q 353.07 391.00 353.03 391.75
  L 353.00 392.34
  Q 352.95 393.21 352.26 392.68
  Q 351.98 392.46 351.99 392.09
  Q 352.01 391.28 351.47 391.87
  C 351.07 392.30 350.92 392.84 350.36 393.12
  Q 349.73 393.44 349.15 393.14
  Q 348.61 392.86 348.59 392.25
  L 348.44 387.94
  Q 348.43 387.63 348.12 387.63
  L 347.73 387.63
  Q 347.66 387.63 347.64 387.71
  Q 347.27 390.27 347.87 392.45
  Q 348.11 393.30 347.43 392.74
  Z
  M 341.32 395.41
  L 342.26 395.52
  Q 343.07 395.62 343.46 394.90
  Q 344.38 393.22 343.20 392.22
  Q 341.32 390.64 340.72 393.01
  C 339.74 396.87 336.13 399.04 333.00 400.97
  Q 331.16 402.10 333.23 401.49
  Q 338.36 399.97 340.68 395.74
  Q 340.89 395.36 341.32 395.41
  Z
  M 405.68 393.39
  L 405.68 393.06
  Q 405.68 392.89 405.52 392.84
  Q 404.27 392.44 403.11 392.56
  Q 402.74 392.61 402.75 392.98
  L 402.77 393.43
  Q 402.79 393.96 403.27 393.74
  Q 404.30 393.28 405.30 393.66
  Q 405.68 393.81 405.68 393.39
  Z
  M 411.90 396.04
  Q 371.08 394.49 330.49 403.64
  A 0.35 0.34 83.0 0 0 330.22 403.99
  L 330.24 404.96
  A 0.26 0.26 0.0 0 0 330.56 405.21
  Q 376.53 394.53 422.99 398.26
  Q 423.62 398.31 423.45 397.71
  L 423.34 397.35
  A 0.70 0.69 84.9 0 0 422.75 396.85
  Q 417.20 396.24 411.90 396.04
  Z"
/>
<path fill="#ffffff" d="
  M 397.78 337.69
  C 395.84 335.28 388.32 333.90 385.40 333.55
  Q 378.66 332.73 372.41 331.43
  Q 368.27 330.58 366.01 327.78
  C 364.73 326.19 364.84 324.11 365.01 322.09
  Q 366.14 308.58 372.98 300.46
  Q 380.56 291.47 389.83 286.85
  C 393.76 284.89 399.18 283.71 402.14 288.14
  Q 408.55 297.76 401.40 307.66
  A 0.63 0.63 0.0 0 1 400.28 307.46
  C 398.86 302.43 397.36 294.45 389.71 297.52
  Q 380.64 301.17 374.67 308.85
  C 373.29 310.63 370.29 312.92 371.01 315.74
  Q 371.79 318.79 375.10 319.83
  C 379.80 321.30 384.77 321.94 389.70 322.53
  C 399.32 323.68 405.47 327.97 403.51 339.27
  C 402.30 346.20 398.08 351.59 392.39 355.76
  Q 382.18 363.24 369.23 367.32
  C 357.88 370.89 346.48 371.94 336.24 365.93
  C 323.74 358.60 329.43 345.15 334.89 335.47
  C 339.42 327.44 344.05 319.32 344.52 310.17
  Q 344.56 309.40 345.23 309.77
  L 347.96 311.29
  Q 348.49 311.59 348.46 312.19
  C 348.08 319.59 345.07 326.29 342.23 333.12
  C 338.69 341.67 337.63 356.80 350.29 358.21
  C 364.35 359.78 379.71 352.97 390.87 345.46
  C 393.39 343.76 395.61 342.51 397.71 340.17
  A 1.93 1.92 46.6 0 0 397.78 337.69
  Z"
/>
<path fill="#ffffff" d="
  M 425.77 329.43
  Q 421.38 325.50 417.56 321.06
  Q 412.48 315.13 413.23 308.40
  C 414.04 301.15 417.59 293.73 424.03 290.19
  C 435.09 284.12 445.82 292.32 451.97 301.78
  Q 452.29 302.27 451.89 302.69
  L 451.22 303.40
  Q 450.86 303.78 450.40 303.52
  C 441.80 298.54 432.33 296.61 423.19 300.78
  C 419.67 302.38 418.80 306.20 420.62 309.45
  C 423.41 314.42 429.40 319.16 434.22 322.06
  C 436.08 323.18 438.08 323.22 440.12 322.55
  Q 452.84 318.36 464.94 316.58
  Q 465.47 316.50 465.35 317.03
  L 463.05 326.41
  A 1.27 1.24 77.9 0 1 462.61 327.11
  Q 461.00 328.39 458.75 328.64
  C 444.40 330.27 429.90 335.13 420.54 346.68
  Q 411.40 357.96 417.82 371.22
  C 423.78 383.53 437.01 392.66 449.74 396.95
  A 0.41 0.40 32.8 0 1 449.89 397.63
  L 441.27 405.73
  Q 440.82 406.16 440.25 405.88
  Q 425.73 398.54 417.16 388.43
  C 407.94 377.56 406.35 361.43 411.42 348.04
  Q 415.69 336.75 425.71 330.29
  Q 426.31 329.91 425.77 329.43
  Z"
/>
<path fill="#ffffff" d="
  M 342.30 300.37
  L 345.47 296.08
  A 2.55 2.55 0.0 0 1 348.62 295.29
  L 352.27 297.04
  A 2.55 2.55 0.0 0 1 353.19 300.89
  L 349.98 305.10
  A 2.55 2.55 0.0 0 1 346.88 305.87
  L 343.28 304.20
  A 2.55 2.55 0.0 0 1 342.30 300.37
  Z"
/>
<path fill="#669934" d="
  M 246.68 330.35
  C 234.64 353.59 228.39 380.07 227.39 406.49
  Q 227.22 411.05 227.12 415.32
  C 227.07 417.63 225.83 419.39 224.94 421.42
  Q 224.73 421.88 224.72 422.39
  L 224.68 425.09
  Q 224.67 425.72 224.03 425.77
  Q 188.23 428.68 154.09 438.39
  A 0.46 0.45 -7.3 0 1 153.51 437.95
  Q 153.54 430.41 153.56 423.31
  C 153.56 421.19 154.78 419.92 154.81 417.93
  Q 155.37 372.64 191.46 346.01
  Q 208.43 333.48 232.35 326.61
  Q 234.20 326.08 236.01 326.57
  Q 241.70 328.11 246.50 329.88
  A 0.34 0.33 24.8 0 1 246.68 330.35
  Z"
/>
<path fill="#669934" d="
  M 559.48 326.62
  C 576.07 331.39 591.84 338.79 604.92 349.62
  Q 636.48 375.76 636.91 417.98
  C 636.92 419.92 638.27 420.99 638.23 422.98
  Q 638.07 430.52 638.18 437.81
  A 0.55 0.54 7.3 0 1 637.49 438.34
  Q 602.24 428.49 567.60 425.77
  Q 566.84 425.71 566.96 424.96
  C 567.24 423.23 567.13 421.45 566.14 419.93
  Q 564.62 417.61 564.62 415.90
  C 564.57 386.09 558.57 357.05 545.17 330.42
  A 0.46 0.45 66.8 0 1 545.42 329.78
  Q 550.23 328.09 555.68 326.59
  Q 557.55 326.07 559.48 326.62
  Z"
/>
<path fill="#ffffff" d="
  M 407.22 377.05
  A 0.76 0.75 -87.1 0 1 407.95 377.87
  L 407.92 378.17
  A 0.47 0.46 -86.1 0 1 407.44 378.60
  Q 387.96 377.91 368.42 379.83
  Q 367.74 379.89 367.61 379.23
  L 367.55 378.90
  A 0.41 0.41 0.0 0 1 367.91 378.41
  Q 387.54 376.49 407.22 377.05
  Z"
/>
<path fill="#ffffff" d="
  M 389.25 383.14
  Q 389.20 383.36 388.95 383.40
  A 0.25 0.24 -17.8 0 1 388.69 383.27
  Q 388.18 382.29 388.69 381.40
  A 0.49 0.48 -58.3 0 1 389.38 381.23
  Q 389.89 381.58 390.23 382.05
  Q 390.60 382.58 390.02 382.86
  Q 389.74 382.99 389.43 382.99
  A 0.19 0.18 -84.2 0 0 389.25 383.14
  Z"
/>
<path fill="#ffffff" d="
  M 396.76 383.33
  Q 397.06 383.20 397.38 383.23
  Q 399.04 383.43 397.56 384.18
  Q 396.77 384.59 395.73 384.18
  Q 395.09 383.94 395.57 383.46
  Q 395.88 383.15 396.16 383.31
  Q 396.46 383.47 396.76 383.33
  Z"
/>
<path fill="#ffffff" d="
  M 388.99 383.80
  A 0.10 0.10 0.0 0 1 389.08 383.70
  L 389.26 383.69
  A 3.01 0.82 88.1 0 1 390.18 386.67
  L 390.22 387.67
  A 3.01 0.82 88.1 0 1 389.50 390.71
  L 389.32 390.71
  A 0.10 0.10 0.0 0 1 389.21 390.62
  L 388.99 383.80
  Z"
/>
<path fill="#ffffff" d="
  M 404.18 388.37
  Q 404.23 388.22 404.37 388.12
  Q 404.65 387.91 404.73 388.26
  Q 404.92 389.05 405.61 389.41
  A 0.99 0.99 0.0 0 0 407.04 388.76
  Q 407.34 387.41 408.21 386.16
  Q 408.58 385.62 409.09 386.02
  C 410.42 387.08 412.31 387.93 412.22 389.87
  A 1.35 1.35 0.0 0 1 410.27 391.01
  C 408.19 389.98 406.49 391.53 404.93 390.66
  Q 404.27 390.29 403.56 390.56
  Q 402.26 391.05 401.00 390.43
  Q 400.51 390.19 400.04 390.46
  Q 399.00 391.05 398.02 390.43
  A 1.80 1.77 59.1 0 0 396.98 390.16
  L 395.86 390.24
  A 1.44 1.44 0.0 0 1 394.83 387.72
  L 397.31 385.56
  Q 397.76 385.18 397.78 385.77
  L 397.90 388.34
  A 1.00 1.00 0.0 0 0 398.88 389.29
  Q 399.96 389.31 400.66 388.45
  A 0.34 0.34 0.0 0 1 401.22 388.48
  Q 402.05 389.74 403.44 389.17
  Q 403.99 388.94 404.18 388.37
  Z
  M 396.32 387.50
  Q 395.72 387.74 395.42 388.29
  Q 395.21 388.67 395.61 388.85
  Q 396.02 389.03 396.49 389.03
  Q 396.98 389.03 397.10 388.56
  Q 397.18 388.22 397.09 387.89
  A 0.58 0.57 71.6 0 0 396.32 387.50
  Z
  M 409.15 387.95
  Q 409.04 387.43 408.54 387.51
  Q 408.31 387.54 408.20 387.75
  L 407.80 388.50
  Q 407.54 389.00 408.09 389.01
  Q 409.47 389.06 410.65 389.85
  Q 411.56 390.46 411.14 389.45
  Q 410.82 388.70 409.87 388.60
  A 0.82 0.82 0.0 0 1 409.15 387.95
  Z"
/>
<ellipse fill="#ffffff" cx="0.00" cy="0.00" transform="translate(400.65,386.17) rotate(22.3)" rx="1.16" ry="0.84"/>
<ellipse fill="#ffffff" cx="0.00" cy="0.00" transform="translate(363.62,389.09) rotate(89.2)" rx="3.68" ry="0.59"/>
<path fill="#ffffff" d="
  M 360.27 391.99
  A 1.39 1.39 0.0 0 0 360.82 390.77
  L 360.52 386.96
  A 0.63 0.62 -74.3 0 1 361.51 386.40
  Q 361.77 386.59 361.89 386.89
  Q 362.03 387.23 361.93 387.58
  C 361.25 389.90 362.45 393.75 358.88 393.85
  Q 358.24 393.87 358.35 394.50
  L 358.59 395.82
  Q 358.64 396.10 358.42 396.29
  Q 357.98 396.66 357.37 396.53
  A 0.65 0.65 0.0 0 1 357.11 395.38
  Q 358.04 394.67 357.51 393.63
  Q 357.24 393.10 357.82 393.03
  Q 359.07 392.89 360.27 391.99
  Z"
/>
<path fill="#ffffff" d="
  M 357.48 386.64
  A 0.20 0.20 0.0 0 1 357.75 386.71
  L 357.81 386.82
  A 5.36 0.52 60.8 0 1 359.97 391.75
  L 359.80 391.85
  A 5.36 0.52 60.8 0 1 356.73 387.42
  L 356.67 387.32
  A 0.20 0.20 0.0 0 1 356.75 387.05
  L 357.48 386.64
  Z"
/>
<path fill="#ffffff" d="
  M 380.54 391.25
  L 379.63 390.95
  Q 379.20 390.81 379.05 390.39
  Q 378.63 389.21 379.48 388.13
  Q 380.51 386.84 381.67 388.02
  Q 382.11 388.47 382.24 389.10
  A 0.62 0.62 0.0 0 0 383.03 389.57
  L 383.43 389.45
  Q 383.95 389.28 384.12 388.76
  L 384.49 387.65
  A 1.25 1.24 -50.9 0 1 386.75 387.41
  Q 388.03 389.61 386.56 390.84
  A 0.71 0.70 38.1 0 1 385.80 390.93
  Q 384.32 390.18 382.67 391.15
  Q 382.11 391.47 381.93 392.09
  C 381.48 393.66 379.33 394.63 378.05 393.43
  Q 377.57 392.99 378.22 393.03
  Q 379.89 393.11 380.77 392.02
  Q 381.21 391.47 380.54 391.25
  Z
  M 385.58 389.47
  A 0.45 0.44 -75.7 0 0 386.23 389.08
  Q 386.24 388.37 385.61 388.12
  A 0.42 0.41 -72.7 0 0 385.05 388.42
  Q 384.90 389.11 385.58 389.47
  Z
  M 380.02 388.80
  A 0.51 0.50 47.7 0 0 379.98 389.67
  Q 380.62 390.09 380.96 389.91
  A 0.60 0.59 -47.5 0 0 380.92 388.84
  Q 380.37 388.61 380.02 388.80
  Z"
/>
<path fill="#ffffff" d="
  M 369.07 392.37
  A 1.05 1.05 0.0 0 0 370.99 392.49
  Q 372.66 389.25 375.61 387.60
  Q 376.38 387.16 377.13 387.53
  A 0.69 0.69 0.0 0 1 376.87 388.84
  C 374.20 389.02 372.60 391.64 371.35 393.71
  A 1.53 1.53 0.0 0 1 368.64 393.53
  Q 367.77 391.49 369.11 389.58
  Q 369.20 389.43 369.35 389.53
  L 369.57 389.67
  A 0.05 0.05 0.0 0 1 369.58 389.74
  Q 368.60 391.13 369.07 392.37
  Z"
/>
<path fill="#ffffff" d="
  M 347.87 392.45
  Q 347.27 390.27 347.64 387.71
  Q 347.66 387.63 347.73 387.63
  L 348.12 387.63
  Q 348.43 387.63 348.44 387.94
  L 348.59 392.25
  Q 348.61 392.86 349.15 393.14
  Q 349.73 393.44 350.36 393.12
  C 350.92 392.84 351.07 392.30 351.47 391.87
  Q 352.01 391.28 351.99 392.09
  Q 351.98 392.46 352.26 392.68
  Q 352.95 393.21 353.00 392.34
  L 353.03 391.75
  Q 353.07 391.00 353.74 391.36
  Q 354.07 391.54 354.02 391.93
  Q 353.89 392.84 354.59 392.24
  Q 355.28 391.65 355.02 390.35
  Q 355.01 390.29 355.07 390.27
  L 355.45 390.18
  Q 355.87 390.07 355.91 390.50
  Q 356.05 392.06 355.20 393.23
  Q 354.92 393.61 354.46 393.68
  L 349.30 394.57
  Q 348.76 394.66 348.31 394.35
  Q 348.19 394.26 348.10 394.14
  Q 347.71 393.61 347.36 394.16
  Q 346.42 395.63 344.70 395.61
  Q 343.93 395.60 344.59 395.21
  Q 345.59 394.62 346.29 393.71
  Q 346.57 393.36 346.29 393.00
  L 343.84 389.92
  A 0.54 0.54 0.0 0 1 344.07 389.08
  Q 345.17 388.66 345.47 389.78
  Q 345.92 391.49 347.43 392.74
  Q 348.11 393.30 347.87 392.45
  Z"
/>
<path fill="#669934" d="
  M 396.32 387.50
  A 0.58 0.57 71.6 0 1 397.09 387.89
  Q 397.18 388.22 397.10 388.56
  Q 396.98 389.03 396.49 389.03
  Q 396.02 389.03 395.61 388.85
  Q 395.21 388.67 395.42 388.29
  Q 395.72 387.74 396.32 387.50
  Z"
/>
<path fill="#669934" d="
  M 409.87 388.60
  Q 410.82 388.70 411.14 389.45
  Q 411.56 390.46 410.65 389.85
  Q 409.47 389.06 408.09 389.01
  Q 407.54 389.00 407.80 388.50
  L 408.20 387.75
  Q 408.31 387.54 408.54 387.51
  Q 409.04 387.43 409.15 387.95
  A 0.82 0.82 0.0 0 0 409.87 388.60
  Z"
/>
<path fill="#669934" d="
  M 385.58 389.47
  Q 384.90 389.11 385.05 388.42
  A 0.42 0.41 -72.7 0 1 385.61 388.12
  Q 386.24 388.37 386.23 389.08
  A 0.45 0.44 -75.7 0 1 385.58 389.47
  Z"
/>
<path fill="#669934" d="
  M 380.02 388.80
  Q 380.37 388.61 380.92 388.84
  A 0.60 0.59 -47.5 0 1 380.96 389.91
  Q 380.62 390.09 379.98 389.67
  A 0.51 0.50 47.7 0 1 380.02 388.80
  Z"
/>
<path fill="#ffffff" d="
  M 340.68 395.74
  Q 338.36 399.97 333.23 401.49
  Q 331.16 402.10 333.00 400.97
  C 336.13 399.04 339.74 396.87 340.72 393.01
  Q 341.32 390.64 343.20 392.22
  Q 344.38 393.22 343.46 394.90
  Q 343.07 395.62 342.26 395.52
  L 341.32 395.41
  Q 340.89 395.36 340.68 395.74
  Z
  M 341.23 393.72
  Q 341.83 394.34 342.56 394.21
  A 0.51 0.51 0.0 0 0 342.76 393.29
  Q 342.00 392.77 341.29 393.21
  A 0.33 0.33 0.0 0 0 341.23 393.72
  Z"
/>
<path fill="#ffffff" d="
  M 405.30 393.66
  Q 404.30 393.28 403.27 393.74
  Q 402.79 393.96 402.77 393.43
  L 402.75 392.98
  Q 402.74 392.61 403.11 392.56
  Q 404.27 392.44 405.52 392.84
  Q 405.68 392.89 405.68 393.06
  L 405.68 393.39
  Q 405.68 393.81 405.30 393.66
  Z"
/>
<path fill="#669934" d="
  M 341.23 393.72
  A 0.33 0.33 0.0 0 1 341.29 393.21
  Q 342.00 392.77 342.76 393.29
  A 0.51 0.51 0.0 0 1 342.56 394.21
  Q 341.83 394.34 341.23 393.72
  Z"
/>
<path fill="#ffffff" d="
  M 411.90 396.04
  Q 417.20 396.24 422.75 396.85
  A 0.70 0.69 84.9 0 1 423.34 397.35
  L 423.45 397.71
  Q 423.62 398.31 422.99 398.26
  Q 376.53 394.53 330.56 405.21
  A 0.26 0.26 0.0 0 1 330.24 404.96
  L 330.22 403.99
  A 0.35 0.34 83.0 0 1 330.49 403.64
  Q 371.08 394.49 411.90 396.04
  Z"
/>
<path fill="#669934" d="
  M 372.77 425.89
  C 439.74 422.49 507.10 430.26 570.49 451.83
  A 0.47 0.47 0.0 0 1 570.80 452.27
  L 570.79 477.84
  Q 570.79 478.47 570.16 478.47
  L 222.01 478.47
  A 0.47 0.47 0.0 0 1 221.54 478.00
  L 221.54 452.47
  Q 221.54 451.90 222.09 451.73
  C 270.64 436.79 321.40 428.50 372.77 425.89
  Z"
/>
<path fill="#669934" d="
  M 217.01 447.34
  Q 216.30 447.56 216.30 448.31
  L 216.30 459.28
  Q 216.30 459.86 215.72 459.86
  L 149.94 459.86
  Q 149.27 459.86 149.28 459.19
  L 149.31 446.47
  Q 149.31 445.30 150.40 444.90
  Q 154.08 443.55 157.81 442.53
  Q 190.55 433.52 223.99 432.01
  Q 224.73 431.97 224.72 432.71
  L 224.60 444.38
  Q 224.59 445.01 223.99 445.20
  L 217.01 447.34
  Z"
/>
<path fill="#669934" d="
  M 574.84 447.35
  L 567.56 445.12
  Q 567.10 444.97 567.10 444.49
  L 567.20 432.72
  Q 567.21 432.02 567.90 432.05
  Q 605.37 433.63 641.20 444.74
  A 1.55 1.55 0.0 0 1 642.29 446.22
  L 642.29 459.28
  Q 642.29 459.86 641.71 459.86
  L 576.04 459.86
  Q 575.46 459.86 575.46 459.29
  L 575.47 448.21
  A 0.90 0.89 -81.8 0 0 574.84 447.35
  Z"
/>
<path fill="#669934" d="
  M 180.20 508.59
  C 179.70 505.61 176.02 505.41 174.02 506.75
  A 1.86 1.84 76.0 0 0 173.20 508.13
  Q 173.01 510.21 175.37 511.11
  C 177.93 512.08 181.03 512.71 183.03 514.71
  C 186.61 518.31 184.73 523.60 180.10 524.79
  C 174.97 526.12 168.76 524.35 167.85 518.41
  A 0.50 0.49 -4.5 0 1 168.34 517.84
  L 171.97 517.84
  Q 172.40 517.84 172.44 518.26
  Q 172.80 521.92 177.43 521.59
  Q 180.02 521.41 180.42 519.00
  A 2.06 2.05 15.3 0 0 179.12 516.73
  C 175.49 515.37 168.39 513.66 168.62 508.52
  C 168.86 503.19 174.67 501.93 178.90 502.69
  Q 183.84 503.58 184.85 508.55
  Q 185.00 509.24 184.29 509.24
  L 180.99 509.26
  Q 180.31 509.26 180.20 508.59
  Z"
/>
<path fill="#669934" d="
  M 375.95 509.71
  C 375.72 505.50 370.26 504.90 368.18 507.83
  C 366.60 510.04 367.09 514.97 367.34 517.55
  C 367.86 522.77 375.33 522.93 375.95 518.00
  Q 376.02 517.50 376.52 517.50
  L 379.96 517.50
  Q 380.46 517.50 380.44 518.00
  C 380.21 523.14 374.76 525.79 370.20 525.06
  Q 364.06 524.09 362.84 517.82
  C 361.59 511.37 362.81 503.38 370.62 502.57
  Q 377.80 501.82 380.21 508.24
  Q 380.49 508.97 380.45 509.79
  Q 380.43 510.21 380.01 510.21
  L 376.50 510.22
  Q 375.98 510.23 375.95 509.71
  Z"
/>
<path fill="#669934" d="
  M 475.2404 525.3699
  A 11.56 9.64 89.8 0 1 465.5601 513.8436
  A 11.56 9.64 89.8 0 1 475.1596 502.2501
  A 11.56 9.64 89.8 0 1 484.8399 513.7764
  A 11.56 9.64 89.8 0 1 475.2404 525.3699
  Z
  M 475.2038 521.7200
  A 7.90 4.99 89.9 0 0 480.1800 513.8113
  A 7.90 4.99 89.9 0 0 475.1762 505.9200
  A 7.90 4.99 89.9 0 0 470.2000 513.8287
  A 7.90 4.99 89.9 0 0 475.2038 521.7200
  Z"
/>
<path fill="#669934" d="
  M 606.2001 525.3600
  A 11.54 9.65 89.9 0 1 596.5300 513.8368
  A 11.54 9.65 89.9 0 1 606.1599 502.2800
  A 11.54 9.65 89.9 0 1 615.8300 513.8032
  A 11.54 9.65 89.9 0 1 606.2001 525.3600
  Z
  M 606.1938 521.7200
  A 7.91 5.00 89.9 0 0 611.1800 513.8013
  A 7.91 5.00 89.9 0 0 606.1662 505.9000
  A 7.91 5.00 89.9 0 0 601.1800 513.8187
  A 7.91 5.00 89.9 0 0 606.1938 521.7200
  Z"
/>
<rect fill="#669934" x="160.04" y="502.76" width="4.60" height="22.18" rx="0.44"/>
<path fill="#669934" d="
  M 192.94 521.25
  L 201.70 521.26
  A 0.45 0.45 0.0 0 1 202.15 521.73
  L 202.01 524.44
  A 0.45 0.45 0.0 0 1 201.56 524.87
  L 188.39 524.90
  A 0.45 0.45 0.0 0 1 187.94 524.45
  L 187.91 503.24
  A 0.45 0.45 0.0 0 1 188.35 502.79
  L 192.05 502.75
  A 0.45 0.45 0.0 0 1 192.51 503.20
  L 192.49 520.80
  A 0.45 0.45 0.0 0 0 192.94 521.25
  Z"
/>
<path fill="#669934" d="
  M 217.12 520.21
  L 209.86 520.22
  A 0.52 0.52 0.0 0 0 209.36 520.59
  L 208.19 524.57
  A 0.52 0.52 0.0 0 1 207.69 524.94
  L 203.90 524.95
  A 0.52 0.52 0.0 0 1 203.41 524.25
  L 211.23 503.12
  A 0.52 0.52 0.0 0 1 211.72 502.78
  L 215.29 502.76
  A 0.52 0.52 0.0 0 1 215.78 503.10
  L 223.62 524.27
  A 0.52 0.52 0.0 0 1 223.12 524.97
  L 219.36 524.87
  A 0.52 0.52 0.0 0 1 218.88 524.51
  L 217.62 520.57
  A 0.52 0.52 0.0 0 0 217.12 520.21
  Z
  M 213.30 509.01
  L 210.94 515.92
  Q 210.70 516.60 211.42 516.60
  L 215.53 516.59
  Q 216.33 516.59 216.08 515.83
  L 213.78 509.01
  Q 213.54 508.31 213.30 509.01
  Z"
/>
<path fill="#669934" d="
  M 244.50 509.76
  L 239.20 524.39
  Q 238.98 524.99 238.34 524.97
  L 236.78 524.92
  Q 235.97 524.90 235.70 524.14
  L 230.51 509.61
  Q 230.18 508.71 230.21 509.67
  L 230.57 524.18
  A 0.74 0.74 0.0 0 1 229.82 524.94
  L 226.67 524.92
  Q 225.93 524.91 225.93 524.17
  L 225.89 503.19
  A 0.38 0.38 0.0 0 1 226.27 502.81
  L 231.31 502.77
  A 0.79 0.78 79.6 0 1 232.06 503.29
  L 237.08 517.81
  Q 237.51 519.06 237.94 517.81
  L 242.97 503.29
  Q 243.15 502.78 243.69 502.78
  L 248.42 502.77
  Q 249.06 502.77 249.06 503.42
  L 249.11 523.91
  Q 249.11 524.93 248.09 524.94
  L 245.20 524.96
  A 0.75 0.74 0.7 0 1 244.45 524.20
  L 244.80 509.81
  Q 244.83 508.86 244.50 509.76
  Z"
/>
<path fill="#669934" d="
  M 257.67 520.69
  L 256.56 524.47
  A 0.64 0.64 0.0 0 1 255.95 524.93
  L 252.42 524.95
  A 0.64 0.64 0.0 0 1 251.82 524.09
  L 259.55 503.19
  A 0.64 0.64 0.0 0 1 260.15 502.77
  L 263.55 502.77
  A 0.64 0.64 0.0 0 1 264.15 503.19
  L 271.94 524.16
  A 0.64 0.64 0.0 0 1 271.31 525.02
  L 267.74 524.85
  A 0.64 0.64 0.0 0 1 267.16 524.40
  L 265.99 520.64
  A 0.64 0.64 0.0 0 0 265.38 520.19
  L 258.28 520.23
  A 0.64 0.64 0.0 0 0 257.67 520.69
  Z
  M 264.48 515.97
  L 262.12 509.07
  Q 261.85 508.26 261.58 509.07
  L 259.32 515.87
  Q 259.07 516.60 259.84 516.60
  L 264.04 516.58
  Q 264.68 516.58 264.48 515.97
  Z"
/>
<path fill="#669934" d="
  M 278.87 516.11
  L 278.89 524.55
  A 0.37 0.37 0.0 0 1 278.52 524.92
  L 274.66 524.93
  A 0.37 0.37 0.0 0 1 274.29 524.56
  L 274.29 503.14
  A 0.37 0.37 0.0 0 1 274.66 502.77
  L 288.24 502.77
  A 0.37 0.37 0.0 0 1 288.61 503.13
  L 288.65 505.91
  A 0.37 0.37 0.0 0 1 288.28 506.29
  L 279.20 506.31
  A 0.37 0.37 0.0 0 0 278.83 506.68
  L 278.85 511.83
  A 0.37 0.37 0.0 0 0 279.22 512.20
  L 287.31 512.15
  A 0.37 0.37 0.0 0 1 287.68 512.53
  L 287.62 515.41
  A 0.37 0.37 0.0 0 1 287.25 515.77
  L 279.24 515.74
  A 0.37 0.37 0.0 0 0 278.87 516.11
  Z"
/>
<path fill="#669934" d="
  M 295.87 516.18
  L 295.89 524.48
  A 0.45 0.45 0.0 0 1 295.44 524.93
  L 291.74 524.93
  A 0.45 0.45 0.0 0 1 291.29 524.48
  L 291.28 503.22
  A 0.45 0.45 0.0 0 1 291.73 502.77
  L 305.23 502.77
  A 0.45 0.45 0.0 0 1 305.68 503.22
  L 305.70 505.85
  A 0.45 0.45 0.0 0 1 305.25 506.30
  L 296.28 506.29
  A 0.45 0.45 0.0 0 0 295.83 506.74
  L 295.85 511.76
  A 0.45 0.45 0.0 0 0 296.30 512.21
  L 304.30 512.19
  A 0.45 0.45 0.0 0 1 304.75 512.65
  L 304.69 515.33
  A 0.45 0.45 0.0 0 1 304.24 515.77
  L 296.32 515.73
  A 0.45 0.45 0.0 0 0 295.87 516.18
  Z"
/>
<path fill="#669934" d="
  M 309.91 520.65
  L 308.70 524.49
  A 0.62 0.62 0.0 0 1 308.12 524.93
  L 304.54 524.97
  A 0.62 0.62 0.0 0 1 303.95 524.13
  L 311.70 503.18
  A 0.62 0.62 0.0 0 1 312.28 502.77
  L 315.71 502.77
  A 0.62 0.62 0.0 0 1 316.29 503.17
  L 324.12 524.17
  A 0.62 0.62 0.0 0 1 323.52 525.01
  L 319.88 524.89
  A 0.62 0.62 0.0 0 1 319.30 524.45
  L 318.21 520.67
  A 0.62 0.62 0.0 0 0 317.61 520.22
  L 310.50 520.22
  A 0.62 0.62 0.0 0 0 309.91 520.65
  Z
  M 311.29 516.25
  A 0.24 0.24 0.0 0 0 311.51 516.56
  L 316.41 516.61
  Q 316.81 516.62 316.68 516.24
  L 314.17 508.76
  Q 314.00 508.26 313.83 508.76
  L 311.29 516.25
  Z"
/>
<rect fill="#669934" x="326.75" y="502.77" width="4.54" height="22.14" rx="0.40"/>
<path fill="#669934" d="
  M 340.14 517.27
  L 340.15 524.28
  A 0.68 0.68 0.0 0 1 339.47 524.96
  L 336.23 524.93
  Q 335.53 524.92 335.53 524.23
  L 335.54 503.46
  Q 335.54 502.81 336.18 502.79
  Q 341.08 502.63 345.77 502.94
  C 352.83 503.40 353.98 512.03 348.41 515.40
  Q 348.01 515.64 348.23 516.05
  L 352.72 524.66
  A 0.15 0.15 0.0 0 1 352.60 524.88
  Q 349.07 525.09 347.88 524.72
  Q 347.83 524.71 347.80 524.66
  Q 345.82 521.09 344.03 517.24
  Q 343.77 516.69 343.17 516.69
  L 340.73 516.68
  Q 340.14 516.68 340.14 517.27
  Z
  M 340.10 506.63
  L 340.12 512.75
  A 0.32 0.32 0.0 0 0 340.44 513.07
  L 343.97 513.06
  A 3.39 2.96 -0.1 0 0 347.35 510.09
  L 347.35 509.25
  A 3.39 2.96 -0.1 0 0 343.95 506.30
  L 340.42 506.31
  A 0.32 0.32 0.0 0 0 340.10 506.63
  Z"
/>
<path fill="#669934" d="
  M 395.59 520.24
  L 388.35 520.20
  A 0.52 0.52 0.0 0 0 387.86 520.55
  L 386.50 524.54
  A 0.52 0.52 0.0 0 1 386.02 524.90
  L 382.28 524.97
  A 0.52 0.52 0.0 0 1 381.79 524.26
  L 389.67 503.09
  A 0.52 0.52 0.0 0 1 390.17 502.75
  L 393.68 502.80
  A 0.52 0.52 0.0 0 1 394.16 503.13
  L 402.08 524.29
  A 0.52 0.52 0.0 0 1 401.57 524.99
  L 397.81 524.87
  A 0.52 0.52 0.0 0 1 397.33 524.51
  L 396.08 520.60
  A 0.52 0.52 0.0 0 0 395.59 520.24
  Z
  M 394.24 516.57
  Q 394.68 516.57 394.54 516.16
  L 392.19 508.76
  A 0.24 0.24 0.0 0 0 391.73 508.75
  L 389.32 515.88
  Q 389.09 516.59 389.83 516.58
  L 394.24 516.57
  Z"
/>
<path fill="#669934" d="
  M 417.07 516.13
  L 421.51 524.66
  A 0.18 0.18 0.0 0 1 421.35 524.92
  L 417.00 524.93
  A 0.56 0.56 0.0 0 1 416.49 524.60
  Q 414.82 521.01 412.83 517.38
  Q 412.44 516.67 411.63 516.66
  Q 410.53 516.64 409.48 516.73
  Q 408.89 516.77 408.89 517.37
  L 408.87 524.27
  Q 408.87 524.92 408.23 524.92
  L 404.98 524.93
  Q 404.28 524.94 404.28 524.23
  L 404.29 503.44
  Q 404.29 502.84 404.89 502.82
  Q 410.17 502.57 414.55 502.97
  Q 420.60 503.51 420.66 509.61
  Q 420.70 513.48 417.34 515.26
  Q 416.77 515.56 417.07 516.13
  Z
  M 408.85 506.61
  L 408.83 512.73
  A 0.32 0.32 0.0 0 0 409.15 513.05
  L 412.99 513.06
  A 3.27 3.16 -89.8 0 0 416.16 509.80
  L 416.16 509.58
  A 3.27 3.16 -89.8 0 0 413.01 506.30
  L 409.17 506.29
  A 0.32 0.32 0.0 0 0 408.85 506.61
  Z"
/>
<path fill="#669934" d="
  M 428.99 515.26
  Q 428.73 515.26 428.73 515.51
  L 428.73 520.99
  Q 428.73 521.25 428.99 521.25
  L 438.50 521.24
  Q 439.00 521.24 439.00 521.75
  L 438.99 524.44
  Q 438.99 524.87 438.56 524.87
  L 424.80 524.88
  Q 424.21 524.88 424.21 524.30
  L 424.22 503.41
  A 0.64 0.63 89.5 0 1 424.84 502.77
  L 438.62 502.77
  A 0.36 0.36 0.0 0 1 438.98 503.12
  L 439.00 506.02
  Q 439.01 506.30 438.73 506.30
  L 429.00 506.28
  Q 428.72 506.28 428.72 506.57
  Q 428.73 511.48 428.73 511.49
  A 0.29 0.29 0.0 0 0 429.01 511.78
  Q 432.96 511.79 437.05 511.78
  A 0.43 0.43 0.0 0 1 437.48 512.22
  L 437.45 514.91
  Q 437.44 515.27 437.09 515.27
  L 428.99 515.26
  Z"
/>
<path fill="#669934" d="
  M 453.99 516.11
  L 453.99 524.55
  A 0.37 0.37 0.0 0 1 453.62 524.92
  L 449.84 524.93
  A 0.37 0.37 0.0 0 1 449.47 524.56
  L 449.46 503.14
  A 0.37 0.37 0.0 0 1 449.83 502.77
  L 463.49 502.77
  A 0.37 0.37 0.0 0 1 463.86 503.13
  L 463.90 505.91
  A 0.37 0.37 0.0 0 1 463.53 506.29
  L 454.33 506.31
  A 0.37 0.37 0.0 0 0 453.96 506.68
  L 454.00 511.84
  A 0.37 0.37 0.0 0 0 454.37 512.21
  L 462.47 512.18
  A 0.37 0.37 0.0 0 1 462.84 512.56
  L 462.78 515.41
  A 0.37 0.37 0.0 0 1 462.41 515.77
  L 454.36 515.74
  A 0.37 0.37 0.0 0 0 453.99 516.11
  Z"
/>
<path fill="#669934" d="
  M 492.23 517.54
  C 492.25 522.91 499.97 523.05 499.95 517.73
  Q 499.93 510.52 499.96 503.29
  A 0.51 0.50 0.0 0 1 500.47 502.79
  L 504.06 502.77
  Q 504.54 502.76 504.54 503.25
  Q 504.59 511.27 504.50 518.15
  C 504.38 527.55 487.57 528.05 487.66 517.18
  Q 487.73 509.54 487.70 503.29
  Q 487.70 502.77 488.22 502.77
  L 491.77 502.77
  A 0.44 0.44 0.0 0 1 492.21 503.21
  Q 492.20 510.22 492.23 517.54
  Z"
/>
<path fill="#669934" d="
  M 521.77 516.42
  L 521.72 503.10
  A 0.31 0.31 0.0 0 1 522.03 502.79
  L 525.94 502.76
  A 0.31 0.31 0.0 0 1 526.25 503.07
  L 526.25 524.63
  A 0.31 0.31 0.0 0 1 525.94 524.94
  L 521.97 524.94
  A 0.31 0.31 0.0 0 1 521.70 524.79
  L 513.36 510.75
  A 0.31 0.31 0.0 0 0 512.78 510.90
  L 512.82 524.65
  A 0.31 0.31 0.0 0 1 512.51 524.96
  L 508.58 524.96
  A 0.31 0.31 0.0 0 1 508.27 524.65
  L 508.28 503.07
  A 0.31 0.31 0.0 0 1 508.59 502.76
  L 512.74 502.79
  A 0.31 0.31 0.0 0 1 513.00 502.94
  L 521.19 516.58
  A 0.31 0.31 0.0 0 0 521.77 516.42
  Z"
/>
<path fill="#669934" d="
  M 530.25 503.27
  A 0.56 0.56 0.0 0 1 530.81 502.71
  L 537.24 502.73
  A 10.13 10.01 -89.8 0 1 547.21 512.90
  L 547.21 514.82
  A 10.13 10.01 -89.8 0 1 537.16 524.91
  L 530.73 524.89
  A 0.56 0.56 0.0 0 1 530.17 524.33
  L 530.25 503.27
  Z
  M 534.72 506.68
  L 534.76 520.86
  A 0.41 0.41 0.0 0 0 535.18 521.27
  L 537.00 521.27
  A 5.62 5.57 89.8 0 0 542.55 515.63
  L 542.53 511.87
  A 5.62 5.57 89.8 0 0 536.94 506.27
  L 535.12 506.27
  A 0.41 0.41 0.0 0 0 534.72 506.68
  Z"
/>
<path fill="#669934" d="
  M 554.38 520.80
  L 553.24 524.31
  Q 553.05 524.90 552.43 524.90
  L 548.97 524.92
  A 0.53 0.53 0.0 0 1 548.47 524.20
  L 556.33 503.14
  A 0.54 0.53 -79.7 0 1 556.83 502.79
  L 560.16 502.76
  Q 560.68 502.75 560.86 503.24
  L 568.77 524.29
  A 0.58 0.58 0.0 0 1 568.07 525.05
  Q 566.46 524.61 564.89 524.97
  Q 564.22 525.12 564.00 524.47
  L 562.76 520.76
  Q 562.58 520.23 562.01 520.23
  L 555.19 520.22
  Q 554.57 520.22 554.38 520.80
  Z
  M 555.95 516.13
  A 0.35 0.35 0.0 0 0 556.28 516.59
  L 560.93 516.58
  A 0.35 0.35 0.0 0 0 561.26 516.12
  L 558.92 508.98
  A 0.35 0.35 0.0 0 0 558.26 508.98
  L 555.95 516.13
  Z"
/>
<path fill="#669934" d="
  M 578.95 506.91
  L 578.95 524.47
  A 0.59 0.59 0.0 0 1 578.23 525.04
  Q 576.51 524.63 575.06 525.00
  A 0.55 0.55 0.0 0 1 574.38 524.47
  L 574.37 506.83
  Q 574.37 506.29 573.83 506.29
  L 568.27 506.29
  Q 567.74 506.29 567.74 505.77
  L 567.75 503.26
  Q 567.75 502.77 568.24 502.77
  L 585.52 502.77
  Q 585.78 502.77 585.78 503.02
  L 585.79 506.00
  A 0.29 0.28 90.0 0 1 585.50 506.30
  L 579.59 506.28
  Q 578.95 506.28 578.95 506.91
  Z"
/>
<rect fill="#669934" x="588.63" y="502.78" width="4.58" height="22.12" rx="0.32"/>
<path fill="#669934" d="
  M 623.08 524.93
  L 619.09 524.86
  A 0.30 0.30 0.0 0 1 618.79 524.56
  L 618.79 503.08
  A 0.30 0.30 0.0 0 1 619.09 502.78
  L 623.27 502.81
  A 0.30 0.30 0.0 0 1 623.53 502.95
  L 631.71 516.63
  A 0.30 0.30 0.0 0 0 632.27 516.48
  L 632.24 503.09
  A 0.30 0.30 0.0 0 1 632.54 502.79
  L 636.49 502.75
  A 0.30 0.30 0.0 0 1 636.79 503.05
  L 636.79 524.65
  A 0.30 0.30 0.0 0 1 636.49 524.95
  L 632.44 524.88
  A 0.30 0.30 0.0 0 1 632.18 524.74
  L 623.89 510.77
  A 0.30 0.30 0.0 0 0 623.33 510.92
  L 623.39 524.62
  A 0.30 0.30 0.0 0 1 623.08 524.93
  Z"
/>
<ellipse fill="#ffffff" cx="0.00" cy="0.00" transform="translate(475.19,513.82) rotate(89.9)" rx="7.90" ry="4.99"/>
<ellipse fill="#ffffff" cx="0.00" cy="0.00" transform="translate(606.18,513.81) rotate(89.9)" rx="7.91" ry="5.00"/>
<path fill="#ffffff" d="
  M 340.10 506.63
  A 0.32 0.32 0.0 0 1 340.42 506.31
  L 343.95 506.30
  A 3.39 2.96 -0.1 0 1 347.35 509.25
  L 347.35 510.09
  A 3.39 2.96 -0.1 0 1 343.97 513.06
  L 340.44 513.07
  A 0.32 0.32 0.0 0 1 340.12 512.75
  L 340.10 506.63
  Z"
/>
<path fill="#ffffff" d="
  M 408.85 506.61
  A 0.32 0.32 0.0 0 1 409.17 506.29
  L 413.01 506.30
  A 3.27 3.16 -89.8 0 1 416.16 509.58
  L 416.16 509.80
  A 3.27 3.16 -89.8 0 1 412.99 513.06
  L 409.15 513.05
  A 0.32 0.32 0.0 0 1 408.83 512.73
  L 408.85 506.61
  Z"
/>
<path fill="#ffffff" d="
  M 534.72 506.68
  A 0.41 0.41 0.0 0 1 535.12 506.27
  L 536.94 506.27
  A 5.62 5.57 89.8 0 1 542.53 511.87
  L 542.55 515.63
  A 5.62 5.57 89.8 0 1 537.00 521.27
  L 535.18 521.27
  A 0.41 0.41 0.0 0 1 534.76 520.86
  L 534.72 506.68
  Z"
/>
<path fill="#ffffff" d="
  M 210.94 515.92
  L 213.30 509.01
  Q 213.54 508.31 213.78 509.01
  L 216.08 515.83
  Q 216.33 516.59 215.53 516.59
  L 211.42 516.60
  Q 210.70 516.60 210.94 515.92
  Z"
/>
<path fill="#ffffff" d="
  M 311.29 516.25
  L 313.83 508.76
  Q 314.00 508.26 314.17 508.76
  L 316.68 516.24
  Q 316.81 516.62 316.41 516.61
  L 311.51 516.56
  A 0.24 0.24 0.0 0 1 311.29 516.25
  Z"
/>
<path fill="#ffffff" d="
  M 394.24 516.57
  L 389.83 516.58
  Q 389.09 516.59 389.32 515.88
  L 391.73 508.75
  A 0.24 0.24 0.0 0 1 392.19 508.76
  L 394.54 516.16
  Q 394.68 516.57 394.24 516.57
  Z"
/>
<path fill="#ffffff" d="
  M 555.95 516.13
  L 558.26 508.98
  A 0.35 0.35 0.0 0 1 558.92 508.98
  L 561.26 516.12
  A 0.35 0.35 0.0 0 1 560.93 516.58
  L 556.28 516.59
  A 0.35 0.35 0.0 0 1 555.95 516.13
  Z"
/>
<path fill="#ffffff" d="
  M 262.12 509.07
  L 264.48 515.97
  Q 264.68 516.58 264.04 516.58
  L 259.84 516.60
  Q 259.07 516.60 259.32 515.87
  L 261.58 509.07
  Q 261.85 508.26 262.12 509.07
  Z"
/>
</svg>
