<svg width="629" height="172" viewBox="0 0 629 172" fill="none" xmlns="http://www.w3.org/2000/svg">
<path d="M9.80365 154.675H2.47052L2.47052 126.127H9.80365V154.675ZM25.5483 155.067C24.0582 155.067 22.5942 154.878 21.1563 154.499C19.7315 154.12 18.4374 153.532 17.274 152.734C16.1237 151.937 15.2022 150.917 14.5094 149.675C13.8297 148.421 13.4898 146.924 13.4898 145.185H20.8622C20.8622 145.97 20.9537 146.623 21.1367 147.146C21.3328 147.669 21.6269 148.094 22.019 148.421C22.4112 148.734 22.9013 148.963 23.4896 149.107C24.0778 149.238 24.764 149.303 25.5483 149.303C26.3588 149.303 26.9993 149.192 27.4698 148.97C27.9535 148.747 28.2999 148.46 28.509 148.107C28.7182 147.754 28.8227 147.381 28.8227 146.989C28.8227 146.479 28.7116 146.028 28.4894 145.636C28.2803 145.244 27.8358 144.859 27.1561 144.479C26.4895 144.087 25.4699 143.663 24.0974 143.205C22.8687 142.787 21.6726 142.31 20.5092 141.774C19.3459 141.238 18.3002 140.61 17.3721 139.891C16.444 139.159 15.7055 138.303 15.1565 137.323C14.6074 136.329 14.3329 135.173 14.3329 133.852C14.3329 132.179 14.8166 130.741 15.7839 129.539C16.7512 128.323 18.0714 127.388 19.7446 126.735C21.4177 126.068 23.3196 125.735 25.4503 125.735C27.5548 125.735 29.411 126.094 31.0188 126.813C32.6396 127.519 33.9076 128.539 34.8226 129.872C35.7507 131.205 36.2147 132.8 36.2147 134.656H28.8816C28.8816 134.042 28.7509 133.499 28.4894 133.029C28.2411 132.558 27.8489 132.192 27.313 131.931C26.7901 131.669 26.1169 131.539 25.2934 131.539C24.4961 131.539 23.8229 131.65 23.2739 131.872C22.7379 132.094 22.3327 132.388 22.0582 132.754C21.7968 133.107 21.6661 133.506 21.6661 133.95C21.6661 134.46 21.8752 134.905 22.2935 135.284C22.7118 135.663 23.2935 136.016 24.0386 136.342C24.7836 136.669 25.6464 136.996 26.6267 137.323C28.6659 137.976 30.3913 138.741 31.8031 139.617C33.2279 140.48 34.3128 141.512 35.0579 142.715C35.8029 143.904 36.1755 145.316 36.1755 146.95C36.1755 148.689 35.7376 150.166 34.8618 151.381C33.9991 152.584 32.7703 153.499 31.1756 154.126C29.5809 154.754 27.7051 155.067 25.5483 155.067ZM58.7043 154.675H44.3517V148.754H58.7043V154.675ZM46.9399 154.675H39.5872V126.127H46.9399V154.675ZM67.6844 154.675H59.7827L70.253 126.127H75.2332L74.3705 133.009L67.6844 154.675ZM73.0764 133.009L72.1157 126.127H77.1548L87.6839 154.675H79.7821L73.0764 133.009ZM79.7037 149.891H65.0571V143.95H79.7037V149.891ZM99.2326 126.127L105.174 144.989L111.095 126.127H117.056L107.585 154.675H102.742L93.272 126.127H99.2326ZM95.8013 126.127L96.9581 149.185V154.675H89.5858V126.127H95.8013ZM120.761 126.127V154.675H113.369V149.185L114.526 126.127H120.761ZM130.585 154.675H122.683L133.153 126.127H138.133L137.271 133.009L130.585 154.675ZM135.977 133.009L135.016 126.127H140.055L150.584 154.675H142.682L135.977 133.009ZM142.604 149.891H127.957V143.95H142.604V149.891ZM159.858 154.675H152.486V126.127H159.858V154.675ZM170.662 143.676H157.8V137.754H170.662V143.676ZM171.721 132.068H157.8V126.127H171.721V132.068ZM181.74 154.675H174.368V126.127H181.74V154.675ZM192.544 143.676H179.681V137.754H192.544V143.676ZM193.603 132.068H179.681V126.127H193.603V132.068ZM198.073 154.675H190.171L200.642 126.127H205.622L204.759 133.009L198.073 154.675ZM203.465 133.009L202.504 126.127H207.543L218.072 154.675H210.171L203.465 133.009ZM210.092 149.891H195.446V143.95H210.092V149.891ZM227.759 154.675H220.425V126.127H227.759V154.675ZM243.68 126.127C245.915 126.127 247.849 126.46 249.483 127.127C251.117 127.781 252.379 128.748 253.268 130.029C254.156 131.31 254.601 132.898 254.601 134.793C254.601 136.493 254.346 137.898 253.836 139.009C253.34 140.107 252.64 141.009 251.738 141.715C250.849 142.408 249.804 143.002 248.601 143.499L246.189 144.97H236.876V139.029H243.601C244.412 139.029 245.085 138.898 245.621 138.637C246.17 138.375 246.575 137.989 246.836 137.48C247.111 136.957 247.248 136.316 247.248 135.558C247.248 134.46 246.948 133.604 246.346 132.99C245.745 132.375 244.856 132.068 243.68 132.068H239.621V154.675H232.268V126.127H243.68ZM241.464 142.048H249.268L255.542 154.362V154.675H247.66L241.464 142.048ZM291.933 144.852C291.855 146.865 291.319 148.643 290.325 150.185C289.332 151.715 287.953 152.911 286.188 153.773C284.437 154.636 282.371 155.067 279.992 155.067C277.417 155.067 275.215 154.505 273.385 153.381C271.555 152.244 270.156 150.623 269.189 148.519C268.235 146.414 267.757 143.904 267.757 140.989V139.833C267.757 136.905 268.261 134.388 269.267 132.284C270.274 130.179 271.679 128.558 273.483 127.421C275.3 126.284 277.43 125.715 279.875 125.715C282.411 125.715 284.541 126.173 286.267 127.088C288.005 128.003 289.345 129.251 290.286 130.833C291.24 132.414 291.803 134.199 291.972 136.186H284.639C284.613 134.695 284.254 133.584 283.561 132.852C282.868 132.12 281.639 131.754 279.875 131.754C278.816 131.754 277.94 132.009 277.247 132.519C276.568 133.016 276.058 133.852 275.718 135.029C275.391 136.192 275.228 137.78 275.228 139.793V140.989C275.228 143.015 275.372 144.617 275.659 145.793C275.96 146.957 276.457 147.787 277.149 148.283C277.855 148.78 278.803 149.028 279.992 149.028C280.973 149.028 281.803 148.885 282.483 148.597C283.162 148.309 283.679 147.858 284.031 147.244C284.398 146.63 284.587 145.832 284.6 144.852H291.933ZM300.658 154.675H292.757L303.227 126.127H308.207L307.345 133.009L300.658 154.675ZM306.05 133.009L305.09 126.127H310.129L320.658 154.675H312.756L306.05 133.009ZM312.678 149.891H298.031V143.95H312.678V149.891ZM333.991 126.127C336.226 126.127 338.161 126.46 339.795 127.127C341.429 127.781 342.69 128.748 343.579 130.029C344.468 131.31 344.912 132.898 344.912 134.793C344.912 136.493 344.657 137.898 344.147 139.009C343.651 140.107 342.951 141.009 342.05 141.715C341.161 142.408 340.115 143.002 338.912 143.499L336.501 144.97H327.187V139.029H333.912C334.723 139.029 335.396 138.898 335.932 138.637C336.481 138.375 336.886 137.989 337.148 137.48C337.422 136.957 337.559 136.316 337.559 135.558C337.559 134.46 337.259 133.604 336.657 132.99C336.056 132.375 335.167 132.068 333.991 132.068H329.932V154.675H322.579V126.127H333.991ZM331.775 142.048H339.579L345.853 154.362V154.675H337.971L331.775 142.048ZM368.637 154.675H353.559V148.754H368.637V154.675ZM356.167 154.675H348.794V126.127H356.167V154.675ZM366.696 142.891H353.559V137.186H366.696V142.891ZM368.696 132.068H353.559V126.127H368.696V132.068ZM388.636 154.675H381.264V126.127H388.636V154.675ZM399.44 143.676H386.578V137.754H399.44V143.676ZM400.499 132.068H386.578V126.127H400.499V132.068ZM427.635 140.833C427.635 143.787 427.093 146.329 426.008 148.46C424.936 150.577 423.453 152.211 421.557 153.362C419.662 154.499 417.492 155.067 415.048 155.067C412.577 155.067 410.388 154.499 408.479 153.362C406.571 152.211 405.074 150.577 403.989 148.46C402.917 146.329 402.381 143.787 402.381 140.833V139.989C402.381 137.035 402.917 134.499 403.989 132.382C405.061 130.251 406.544 128.611 408.44 127.46C410.348 126.31 412.538 125.735 415.008 125.735C417.453 125.735 419.623 126.31 421.518 127.46C423.426 128.611 424.923 130.251 426.008 132.382C427.093 134.499 427.635 137.035 427.635 139.989V140.833ZM420.165 139.95C420.165 138.146 419.962 136.637 419.557 135.421C419.165 134.205 418.583 133.29 417.812 132.676C417.041 132.062 416.106 131.754 415.008 131.754C413.858 131.754 412.904 132.062 412.146 132.676C411.388 133.29 410.819 134.205 410.44 135.421C410.061 136.637 409.871 138.146 409.871 139.95V140.833C409.871 142.597 410.061 144.094 410.44 145.323C410.832 146.551 411.407 147.486 412.165 148.126C412.936 148.754 413.897 149.068 415.048 149.068C416.146 149.068 417.074 148.754 417.832 148.126C418.603 147.486 419.185 146.551 419.577 145.323C419.969 144.094 420.165 142.597 420.165 140.833V139.95ZM453.595 126.127V144.617C453.595 146.865 453.125 148.767 452.184 150.322C451.256 151.878 449.942 153.061 448.243 153.871C446.556 154.669 444.57 155.067 442.282 155.067C440.021 155.067 438.027 154.669 436.302 153.871C434.589 153.061 433.256 151.878 432.302 150.322C431.348 148.767 430.871 146.865 430.871 144.617V126.127H438.263V144.617C438.263 145.702 438.413 146.577 438.714 147.244C439.014 147.911 439.465 148.394 440.066 148.695C440.668 148.996 441.406 149.146 442.282 149.146C443.171 149.146 443.903 148.996 444.478 148.695C445.066 148.394 445.504 147.911 445.792 147.244C446.092 146.577 446.243 145.702 446.243 144.617V126.127H453.595ZM481.771 154.675H474.438L465.007 138.166V154.675H457.654V126.127H465.007L474.438 142.636V126.127H481.771V154.675ZM488.967 154.675V148.754H495.261C496.503 148.754 497.549 148.466 498.398 147.891C499.248 147.316 499.895 146.447 500.339 145.283C500.784 144.12 501.006 142.656 501.006 140.891V139.891C501.006 138.14 500.784 136.689 500.339 135.539C499.908 134.375 499.254 133.506 498.379 132.931C497.516 132.356 496.437 132.068 495.143 132.068H488.849V126.127H495.143C497.758 126.127 500.065 126.715 502.065 127.892C504.078 129.068 505.653 130.696 506.79 132.774C507.927 134.839 508.496 137.225 508.496 139.931V140.891C508.496 143.584 507.927 145.97 506.79 148.048C505.653 150.126 504.091 151.754 502.104 152.93C500.117 154.094 497.836 154.675 495.261 154.675H488.967ZM493.222 154.675H485.85V126.127H493.222V154.675ZM517.555 154.675H509.653L520.123 126.127H525.103L524.241 133.009L517.555 154.675ZM522.947 133.009L521.986 126.127H527.025L537.554 154.675H529.652L522.947 133.009ZM529.574 149.891H514.927V143.95H529.574V149.891ZM551.181 154.675H543.828V126.127H551.181V154.675ZM559.612 132.068H535.574V126.127H559.612V132.068ZM570.141 154.675H562.808V126.127H570.141V154.675ZM599.121 140.833C599.121 143.787 598.578 146.329 597.494 148.46C596.422 150.577 594.938 152.211 593.043 153.362C591.147 154.499 588.977 155.067 586.533 155.067C584.063 155.067 581.873 154.499 579.965 153.362C578.056 152.211 576.559 150.577 575.475 148.46C574.403 146.329 573.867 140.833 573.867 140.833V139.989C573.867 137.035 574.403 134.499 575.475 132.382C576.546 130.251 578.03 128.611 579.925 127.46C581.834 126.31 584.023 125.735 586.494 125.735C588.938 125.735 591.108 126.31 593.003 127.46C594.912 128.611 596.409 130.251 597.494 132.382C598.578 134.499 599.121 137.035 599.121 139.989V140.833ZM591.651 139.95C591.651 138.146 591.448 136.637 591.043 135.421C590.651 134.205 590.069 133.29 589.298 132.676C588.526 132.062 587.592 131.754 586.494 131.754C585.344 131.754 584.389 132.062 583.631 132.676C582.873 133.29 582.304 134.205 581.925 135.421C581.546 136.637 581.357 138.146 581.357 139.95V140.833C581.357 142.597 581.546 144.094 581.925 145.323C582.317 146.551 582.893 147.486 583.651 148.126C584.422 148.754 585.383 149.068 586.533 149.068C587.631 149.068 588.559 148.754 589.317 148.126C590.089 147.486 590.67 146.551 591.062 145.323C591.455 144.094 591.651 142.597 591.651 140.833V139.95ZM626.552 154.675H619.218L609.787 138.166V154.675H602.435V126.127H609.787L619.218 142.636V126.127H626.552V154.675Z" fill="white"/>
<path d="M311.968 72.2552C314.005 72.1817 323.234 72.2869 324.981 72.6759L325.073 72.8621L324.942 73.1206C323.606 73.265 318.998 72.8368 317.202 72.8304C310.937 72.8064 303.778 72.9356 297.594 73.9048C295.963 74.106 286.227 75.8635 285.64 75.6988L285.715 75.4936C286.575 75.0565 288.828 74.7207 289.91 74.5244C297.186 73.1497 304.564 72.3908 311.968 72.2552Z" fill="white"/>
<path d="M304.825 68.2605C305.215 68.2162 305.196 68.1972 305.556 68.3378L305.637 68.5874C305.379 69.0651 304.76 68.8852 304.365 69.2678C303.714 69.8987 303.292 70.9592 302.426 71.3101C301.959 71.2632 302.122 71.3 301.716 70.8363C301.717 70.3042 301.713 69.7226 302.015 69.2893L302.145 69.2817C302.114 69.7556 302.109 69.957 302.14 70.4283L302.332 70.588C302.96 70.2788 303.801 68.9346 304.825 68.2605Z" fill="white"/>
<path d="M313.305 3.66345e-05C315.725 0.45733 318.853 1.50518 321.149 2.26859C335.995 7.20733 350.233 15.0807 361.25 26.3067C372.802 38.0792 379.889 53.0225 381.92 69.3731C382.393 73.1714 382.518 76.862 382.66 80.6768C382.699 81.7448 383.539 82.5701 383.64 83.4532C383.961 86.2555 383.908 89.1936 383.891 92.0137C379.059 90.7227 374.721 89.2766 369.691 88.0616C350.952 83.5335 332.958 81.9233 313.748 81.96C296.297 81.9575 276.316 84.4294 259.285 88.044C256.127 88.7167 252.983 89.458 249.857 90.2637C247.524 90.8782 245.075 91.6259 242.733 92.125C242.711 89.5924 242.596 87.0142 243.053 84.5069C243.217 83.4236 244.098 81.9017 244.111 80.835C244.273 67.0291 247.035 53.8231 253.887 41.6973C266.424 19.513 289.107 6.56031 313.101 3.66345e-05C313.169 0.000161729 313.237 -8.97846e-05 313.305 3.66345e-05ZM332.341 27.2276C330.496 26.3653 329.38 26.2275 327.369 26.3526C325.035 26.9393 323.435 28.097 322.248 30.1592C318.636 36.4304 321.774 39.8972 326.191 43.9395C324.197 45.3702 322.799 46.5752 321.451 48.6592C317.836 54.254 317.729 62.619 321.794 68.0137C324.436 71.5167 328.495 74.1742 332.313 76.252C333.719 75.1232 335.396 73.8628 336.397 72.3819C331.146 70.8122 326.811 67.7829 323.868 63.0801C319.844 56.0586 322.076 50.7621 328.984 46.7334C332.163 44.88 337.761 43.4115 341.468 42.9004C341.975 41.3744 342.472 39.8985 342.823 38.3252C340.558 38.5829 338.316 39.022 336.121 39.6377C334.59 40.054 332.169 40.8224 330.718 41.0166C327.76 39.6515 318.944 33.3548 326.454 31.1075C328.635 30.4547 331.496 30.693 333.629 31.3418C334.929 31.7268 336.044 32.9641 337.063 32.7139C337.762 31.4715 333.54 27.7882 332.341 27.2276ZM290.449 69.9707C289.598 71.3871 289.367 72.2337 287.869 73.2129C287.449 73.4879 286.686 74.0046 286.359 74.3555C286.645 74.4429 286.978 74.2882 287.328 74.1983C287.698 73.9893 288.367 73.6272 288.668 73.3662C289.814 72.3793 289.731 71.9234 291.219 71.5293C291.624 71.0378 291.484 70.4824 291.028 70.0821C290.837 70.0415 290.639 69.991 290.449 69.9707ZM298.372 67.5352C298.425 68.4156 298.469 69.2961 298.504 70.1778C298.215 69.6128 297.71 68.3963 297.096 68.2022C297.021 68.8888 297.799 69.7325 298.233 70.2393C298.06 70.328 297.27 70.6941 297.216 70.8057C297.698 71.6495 297.121 71.882 296.513 72.5928C297.004 72.4268 297.579 72.3121 297.88 71.9219C298.095 70.7237 297.983 71.0527 298.836 70.1709C298.91 69.3931 299.078 68.4569 298.922 67.7286C298.657 67.5816 298.671 67.5871 298.372 67.5352ZM292.971 68.376C292.734 68.8979 292.863 69.6274 292.92 70.2227L292.836 70.3633C292.08 69.9666 292.352 68.9013 291.46 68.9746L291.266 69.1416C291.427 69.6712 292.086 70.3681 292.47 70.8115C292.14 71.1448 291.851 71.324 291.747 71.7256C292.226 71.8181 292.688 71.4801 293.078 71.2178C293.751 71.5824 296.904 71.2934 296.456 69.5606L296.309 69.4854C295.838 69.9699 294.54 70.493 293.714 70.6914L293.394 70.7549C293.424 70.2038 293.44 68.758 293.193 68.293L292.971 68.376ZM308.924 67.9375C308.408 68.4632 308.299 68.76 307.984 69.4073C307.655 68.8979 307.446 68.3852 306.932 68.2129C306.297 68.4878 306.071 68.8772 306.239 69.5625C306.561 69.8754 306.62 69.8695 307.027 70.0391L306.99 70.2139C306.621 70.433 306.47 70.5443 306.051 70.6709L305.808 70.6953L305.782 70.8789C306.997 71.7111 307.55 69.9044 308.446 69.6612C308.857 69.5497 309.351 69.9467 309.809 69.4424C309.879 68.9318 309.84 68.8807 309.691 68.3702C309.343 68.0662 309.364 68.0883 308.924 67.9375ZM299.608 67.4307C299.33 68.1085 299.179 70.075 299.825 70.5235C300.049 69.5264 300.041 68.7124 299.905 67.709C299.772 67.5635 299.77 67.5332 299.608 67.4307ZM314.193 67.2373C313.623 67.7415 312.922 68.2791 312.74 69.0303L312.826 69.2823C313.559 69.547 319.705 69.969 320.176 69.7373L320.371 69.503C320.296 68.3553 319.675 68.1269 318.772 67.4961C318.477 68.0776 318.202 68.771 317.677 69.1397C316.948 68.8204 317.567 68.3833 316.86 68.6543C316.486 69.0965 316.653 69.0328 316.189 69.1114C315.747 68.9203 315.879 68.9682 315.552 68.5264L315.417 68.6495C315.044 68.9875 315.038 69.0888 314.653 69.0977C313.889 68.3971 314.645 67.6909 314.193 67.2373ZM310.282 66.7666C310.324 67.3406 310.374 69.4291 310.581 69.7598L310.763 69.7432C310.916 69.0338 311.198 67.6582 310.85 66.9727C310.772 66.8194 310.531 66.8249 310.282 66.7666ZM319.328 64.1924C317.081 63.6147 313.495 63.8462 311.108 63.8995C309.406 63.9286 302.323 64.0019 301.313 64.6924C301.895 65.1016 307.291 64.6002 308.552 64.5723C310.72 64.4633 317.897 64.6117 319.328 64.1924ZM313.34 24.9707C306.547 26.1469 299.345 34.8304 300.311 42.1612C300.85 46.2476 313.334 44.5541 314.18 47.5166C314.103 48.234 313.662 48.7097 313.098 49.1289C307.896 53.0006 300.921 56.619 294.25 55.8819C288.796 55.2801 289.249 49.5591 290.58 45.7032C291.544 42.9093 293.713 39.0378 293.094 36.1309C293.018 35.8815 291.949 35.4098 291.634 35.2627C290.979 40.6019 289.489 42.6762 286.995 47.3496C284.638 52.0118 283.222 57.0758 289.051 59.8897C293.424 62.0088 300.157 60.4227 304.55 58.9278C310.29 56.9739 318.697 51.3961 316.483 44.1944C314.921 39.1114 305.171 41.9087 303.067 38.2891C301.855 36.2037 308.543 30.7784 310.616 30.376C314.484 29.11 314.301 32.3729 315.529 34.8389C316.692 33.2806 317.599 31.1192 317.247 29.1563C316.858 26.9948 315.898 24.7879 313.34 24.9707ZM292.635 29.0713C291.65 30.1548 290.857 31.0118 290.357 32.418C291.266 33.2774 292.285 33.7385 293.5 33.9942C294.448 32.8101 295.051 32.0798 295.752 30.7237C294.995 30.0972 293.641 29.1183 292.635 29.0713Z" fill="white"/>
<path d="M314.25 84.2937C334.083 84.0036 353.866 86.35 373.081 91.2721C378.078 92.5708 382.641 94.0354 387.536 95.5975C387.466 99.2717 387.522 103.131 387.517 106.818C378.777 106.659 369.537 106.796 360.77 106.795L313.145 106.767L263.447 106.683C255.574 106.681 247.447 106.801 239.603 106.666C239.584 102.966 239.593 99.2679 239.63 95.5684C245.097 93.7161 252.677 91.8714 258.207 90.6564C276.61 86.5628 295.396 84.4306 314.25 84.2937Z" fill="white"/>
<path d="M244.555 42.4358C245.648 42.2284 249.094 43.5639 250.334 43.9857C244.44 55.0044 242.113 67.7487 241.943 80.1383C241.925 81.4762 240.927 82.4961 240.868 84.5219C232.323 85.1896 223.851 86.582 215.542 88.6864C213.962 89.0716 212.389 89.4871 210.824 89.9293C210.826 88.0111 210.808 86.0271 210.87 84.1127C210.87 84.1127 210.87 84.1127 210.87 84.1127C210.914 82.9623 211.238 81.6954 211.279 80.5614C211.684 69.4223 215.951 59.6782 224.639 52.4682C230.681 47.4533 237.017 44.6353 244.555 42.4358Z" fill="white"/>
<path d="M381.274 42.4349C382.384 42.2828 384.6 43.1406 385.704 43.4992C400.574 48.3327 413.214 59.6263 415.094 75.8636C415.388 78.0352 415.35 80.1396 415.722 82.3074C416.14 84.7438 415.999 87.436 415.998 89.9205C414.785 89.5696 413.564 89.2478 412.336 88.9538C403.668 86.6857 394.813 85.2011 385.878 84.5157C385.881 81.7208 384.914 81.9362 384.812 79.9838C384.691 77.6716 384.686 75.4126 384.511 73.0548C383.697 62.088 381.17 53.8009 376.531 43.9665C377.796 43.4601 379.917 42.8599 381.274 42.4349Z" fill="white"/>
<path d="M239.586 87.2166C240.143 87.1685 240.255 87.1444 240.796 87.2318C240.95 87.7931 240.896 91.7967 240.896 92.6126C239.724 93.056 238.581 93.4462 237.353 93.6996C237.328 95.4278 237.324 97.1546 237.34 98.8828C228.447 99.0639 218.985 98.8967 210.046 98.9132C209.654 98.9284 209.645 98.9322 209.264 98.8511C208.936 98.001 209.057 93.744 209.159 92.7152C210.371 92.2186 213.014 91.5129 214.295 91.167C222.568 88.9904 231.043 87.6664 239.586 87.2166Z" fill="white"/>
<path d="M385.83 87.1519C395.092 87.5497 404.282 88.9623 413.236 91.3632C414.413 91.6812 416.757 92.1829 417.57 92.9583C417.959 93.982 417.739 97.5916 417.704 98.913L389.434 98.8978C389.382 97.2254 389.398 95.4428 389.387 93.7616C388.234 93.4283 387.03 92.9963 385.889 92.6074C385.887 90.7893 385.868 88.9699 385.83 87.1519Z" fill="white"/>
</svg>
